<?xml version="1.0" encoding="UTF-8" standalone="no"?>
<!-- Generator: Adobe Illustrator 16.0.3, SVG Export Plug-In . SVG Version: 6.00 Build 0)  -->

<svg
   version="1.1"
   id="Ebene_1"
   x="0px"
   y="0px"
   width="20"
   height="20"
   viewBox="0 -4.7295 29.459 29.459"
   enable-background="new 0 0 515.667 515.668"
   xml:space="preserve"
   sodipodi:docname="mapsforge_puzzle_cog.svg"
   inkscape:version="1.4 (1:1.4+202410161351+e7c3feb100)"
   xmlns:inkscape="http://www.inkscape.org/namespaces/inkscape"
   xmlns:sodipodi="http://sodipodi.sourceforge.net/DTD/sodipodi-0.dtd"
   xmlns="http://www.w3.org/2000/svg"
   xmlns:svg="http://www.w3.org/2000/svg"><defs
   id="defs48" /><sodipodi:namedview
   id="namedview48"
   pagecolor="#ffffff"
   bordercolor="#666666"
   borderopacity="1.0"
   inkscape:showpageshadow="2"
   inkscape:pageopacity="0.0"
   inkscape:pagecheckerboard="0"
   inkscape:deskcolor="#d1d1d1"
   inkscape:zoom="22.508589"
   inkscape:cx="11.617787"
   inkscape:cy="13.328245"
   inkscape:window-width="1920"
   inkscape:window-height="1029"
   inkscape:window-x="0"
   inkscape:window-y="0"
   inkscape:window-maximized="1"
   inkscape:current-layer="Ebene_1"
   showguides="true"><sodipodi:guide
     position="24.147162,24.943677"
     orientation="0,-1"
     id="guide55"
     inkscape:locked="false" /><sodipodi:guide
     position="33.897642,3.9376092"
     orientation="0,-1"
     id="guide56"
     inkscape:locked="false" /></sodipodi:namedview>

<g
   id="g44"
   style="display:none"
   inkscape:label="land"
   transform="matrix(0.05675397,0,0,0.05675281,0.10635694,-4.7191662)">
		<path
   fill="#97bf0d"
   d="m 407.896,309.423 c 0.49628,-2.80178 -1.90594,-4.84831 -2.87496,-7.22585 -0.52478,-2.12941 1.05382,-4.34586 -0.0776,-6.40838 -1.37536,-2.84156 -4.20493,-4.71611 -5.36501,-7.70092 -0.49365,-1.35659 -1.03774,-3.46594 0.46618,-4.37186 1.6563,-0.9631 3.08172,0.59328 4.22161,1.59661 1.88584,1.14296 4.31668,0.27645 6.07536,-0.73543 3.05763,-1.48606 3.75418,-5.7837 1.79863,-8.41848 -0.80832,-1.87804 -3.69187,-1.99804 -3.81233,-4.19217 -0.18912,-1.74703 2.16755,-3.81796 3.6192,-2.27582 0.5687,1.2405 1.15675,3.47391 2.96007,2.01876 1.15659,-0.991 0.82735,-3.08486 2.4187,-3.73491 2.44291,-1.0132 5.32264,-0.63579 7.5512,-2.2368 2.43027,-1.42438 4.12442,-3.8568 4.99837,-6.49711 1.26287,-2.46705 3.0161,-5.28624 1.98305,-8.14093 -0.9465,-2.06875 -3.02844,-3.65796 -3.03545,-6.10377 -0.16268,-1.68315 1.86743,-2.17921 2.3004,-3.52078 0.0642,-1.86792 -2.20768,-1.41912 -3.42377,-1.32161 -2.18091,0.35323 -4.40531,0.74407 -6.59654,0.20883 -4.65865,-0.68806 -9.24967,-3.48368 -11.00227,-8.01245 -3.19967,-7.87243 -2.56388,-16.5457 -2.45057,-24.85503 0.32406,-30.20393 3.05482,-60.31069 4.15667,-90.48536 -2.00431,0.26191 -2.74195,-2.38291 -1.95912,-3.86885 0.59891,-1.44988 0.35944,-3.89714 -1.6052,-4.00334 -2.83706,0.082 -4.49356,2.85705 -5.8478,4.99411 -1.45144,2.33615 -3.06649,5.28572 -6.10174,5.63321 -2.69995,0.36296 -5.70964,-0.52011 -8.11029,1.1686 -3.11465,1.71584 -5.95909,4.23458 -7.2009,7.65274 -1.57462,3.08285 -4.4397,5.33424 -7.56886,6.70217 -1.85353,1.5778 -0.45269,4.33879 -1.70817,6.17165 -1.5482,1.2868 -3.00501,-0.67752 -3.65971,-1.94941 -1.07211,-2.0003 -3.64521,-2.09806 -5.54846,-1.38592 -2.35879,0.7379 -5.09367,-0.42844 -7.18958,1.3058 -2.11838,1.45518 -2.68001,4.10861 -3.85129,6.24184 -0.95473,1.76995 -0.31374,3.84782 -1.08717,5.64018 -0.78066,2.44871 -3.87844,1.40426 -4.2579,-0.7289 -0.57337,-1.8419 -1.1536,-3.67055 -2.06825,-5.37738 -1.09011,-3.77626 0.95948,-7.60677 3.27396,-10.4836 0.99568,-1.38191 3.31194,-2.63238 2.25272,-4.65446 -0.98245,-1.89775 -3.45199,-1.3098 -4.59214,0.0908 -3.8769,3.63452 -6.32996,8.8212 -6.33752,14.17157 -0.0195,2.0757 -0.86999,4.59118 1.4547,5.8967 1.66454,0.62514 3.01468,2.59813 2.01353,4.31939 -1.39864,2.53289 -4.80461,2.87374 -7.32263,2.07618 -2.39096,-0.90604 -4.7803,0.46977 -6.66749,1.84834 -1.37857,0.60231 -2.30087,2.48039 -3.97562,2.21095 -1.40996,-0.94568 -0.73945,-3.33476 -2.4469,-4.15688 -1.80147,-1.4103 -5.01426,0.0971 -4.70907,2.4568 0.23879,1.48544 2.03958,3.90638 -0.004,4.80343 -1.70358,-0.40722 -1.83027,-2.84487 -3.12638,-3.93176 -1.32912,-1.57359 -2.77026,-3.23063 -4.66546,-4.10719 -2.10641,-0.65589 -3.14747,1.99282 -3.16981,3.67056 -0.35406,3.19897 -2.03112,6.07489 -3.63901,8.8012 -3.77768,6.21148 -9.5536,11.17646 -16.27624,13.94721 -1.82941,1.56428 -0.19193,4.14111 1.50358,5.03025 2.12117,1.97226 2.06652,6.01576 -0.62981,7.45994 -2.10813,1.40034 -2.97129,3.9145 -4.12295,6.04158 -1.62332,2.04925 -4.45816,1.87424 -6.79343,1.81813 -1.88481,-0.17117 -4.24574,1.18883 -5.64571,-0.64323 -1.6029,-1.63271 -0.11796,-4.10163 -1.48545,-5.78398 -1.34694,-1.94799 -3.9284,-0.13377 -3.65187,1.86271 -0.13498,1.66254 0.88282,3.29485 0.35388,4.93842 -1.71804,2.15531 -5.21503,2.42192 -6.15985,5.28004 -0.46062,1.96983 -3.35033,2.69709 -3.77354,0.29196 -0.32456,-1.89422 -0.57793,-3.90468 -2.0017,-5.35028 -2.00853,-2.20833 -2.69877,-5.15185 -3.47339,-7.94284 -0.5453,-1.54677 -1.45744,-4.42152 -3.62708,-3.45361 -1.97959,0.96493 -2.08362,3.47341 -1.75153,5.37105 0.65612,2.22074 -1.43811,3.48098 -3.39575,3.30203 -2.9967,0.2666 -4.74683,3.81547 -3.67763,6.49116 0.32784,1.75872 2.0915,4.17827 4.07235,2.97847 1.00003,-0.92387 3.89233,-1.73446 3.67038,0.45289 -0.80189,1.36146 -0.55353,3.78254 1.45065,3.71034 1.5371,-0.21239 2.78593,-1.64129 4.46048,-1.34601 2.1276,0.60686 -0.57614,2.57784 -1.83949,2.35126 -1.66706,-0.01 -3.04928,1.96184 -1.89815,3.39269 1.1142,1.2735 2.56903,2.32925 3.08772,4.03439 1.08824,2.09657 -0.57074,4.72342 -2.9656,4.48496 -2.3737,-0.0423 -5.02127,-1.05284 -7.13344,0.55825 -2.03739,1.39192 -1.23475,4.08956 -1.27547,6.15267 0.19118,2.02226 -1.04738,4.12005 0.0796,6.04138 0.97022,2.26168 3.54306,2.70232 5.72598,2.46048 2.79354,-0.0175 6.05648,-0.82855 7.39004,-3.55727 1.49487,-3.24992 4.04698,-5.92168 7.11444,-7.73633 1.74692,-0.7572 3.74715,-2.71699 5.70119,-1.61171 1.54046,1.07561 1.60762,3.44758 0.26358,4.70668 -1.38134,1.63755 0.99617,3.97259 2.61505,2.45141 2.09368,-1.12391 -0.40284,-3.41558 0.9272,-4.6692 1.71079,-0.79477 2.8341,1.19731 4.07549,1.97923 1.44222,0.67402 3.04817,2.78158 1.40984,4.1021 -1.77705,0.61321 -2.19042,3.26202 0.007,3.57801 2.09469,0.52222 3.34884,-1.46766 4.306,-2.95541 1.04096,-1.37803 3.34128,-1.0804 3.94432,0.55392 0.63371,1.95219 3.11627,3.7961 5.08271,2.45548 1.60023,-0.85764 1.13879,-3.46838 2.80936,-4.03878 1.85581,0.41154 1.08089,2.6289 1.89331,3.84687 1.59971,2.63683 5.09617,3.15017 7.90567,2.684 2.02626,-0.74229 4.63732,0.92303 4.15802,3.19953 -0.56123,2.74944 -3.41,4.42541 -6.08449,4.35615 -4.45306,0.60814 -8.90111,-0.60425 -13.05187,-2.12136 -2.54729,-0.3495 -3.94409,2.23094 -5.86778,3.33484 -2.05882,0.52871 -3.22315,-1.70049 -4.60433,-2.76173 -1.59275,-1.73549 -4.74384,-1.31753 -5.48157,-3.91791 -0.41608,-2.08641 0.0195,-5.03344 -2.67692,-5.77673 -2.30568,-0.1484 -4.67024,0.19733 -7.00601,0.10341 -2.69627,0.0505 -5.53826,0.35231 -7.79112,1.96972 -2.52462,1.68114 -5.61893,1.2247 -8.45714,1.69167 -2.43687,0.21347 -3.66078,2.56826 -4.57636,4.53256 -1.23939,3.15809 -3.18017,6.07847 -5.93934,8.10298 -3.42685,2.47695 -5.33887,6.43433 -7.02645,10.195 -0.70844,3.57992 0.50958,7.40611 -1.01606,10.84539 -0.72884,2.45447 1.30964,4.46526 2.95045,5.97859 3.48304,3.3387 5.54128,8.18426 9.99465,10.44638 2.35849,1.04334 4.96032,0.0176 7.42197,0.071 2.25038,-0.47509 4.74059,0.4854 6.75596,-0.70257 2.64311,-0.97859 5.50439,-0.0523 7.87949,1.20032 1.78902,0.54088 4.99977,0.0363 5.26196,2.58213 -0.15064,1.70136 -1.5186,3.15337 -1.16444,4.94126 0.46347,3.19069 2.80218,5.63115 4.00736,8.5391 0.94272,1.97063 2.37352,3.81726 2.32473,6.11404 0.15666,2.6206 -0.88021,5.09113 -1.98319,7.40175 -1.37995,4.06198 0.004,8.51187 2.13966,12.04716 1.21439,1.61501 3.4503,1.56955 5.20328,2.21569 6.59195,1.79098 12.85326,5.01336 17.77121,9.80296 1.12433,1.21704 2.50745,3.02595 4.0333,1.16474 1.70621,-1.80405 2.46746,-4.27648 4.11276,-6.14296 1.27214,-1.61299 2.73663,-3.32568 2.65969,-5.51573 0.0794,-2.29719 -0.2159,-5.06326 1.8474,-6.64811 2.37073,-1.86347 5.38889,-3.609 6.10178,-6.79089 0.82361,-4.92347 -3.5426,-9.11001 -2.59217,-14.05376 0.65287,-3.01891 3.01753,-5.24821 5.08499,-7.38596 3.29586,-3.13867 6.8766,-6.0938 9.26114,-10.03651 1.24817,-1.97411 2.68618,-3.97625 3.1143,-6.31152 0.38616,-2.18188 -1.77,-3.95459 -3.82971,-3.2094 -2.30992,0.49485 -4.63368,2.11921 -7.04177,1.19303 -1.55722,-1.71198 1.32231,-2.81848 2.72936,-2.10989 2.34163,0.7751 4.18811,-0.99768 5.81336,-2.39079 3.9046,-2.82073 8.78923,-4.11276 12.3613,-7.44453 1.82799,-1.29076 3.84233,-3.47875 3.02667,-5.89505 -0.80506,-2.40997 -3.59873,-2.3121 -5.59757,-1.73874 -2.1958,0.48166 -4.41804,-0.37461 -5.98954,-1.9077 -1.17853,-1.08672 -2.08327,-2.45007 -2.71583,-3.91824 -1.11336,-1.09427 -4.49399,-2.27433 -2.79913,-4.18904 1.62765,-0.74317 3.13197,0.78074 4.30581,1.72582 1.84789,1.68021 3.82029,3.52394 6.42695,3.79513 3.07218,0.58636 5.12223,3.8899 8.44158,3.51973 2.19432,-0.70522 4.66234,-1.34657 6.87943,-0.33477 2.23917,0.92223 3.51837,3.1016 4.38113,5.2459 0.85491,1.77225 3.24932,2.06132 3.95857,3.89474 0.77906,2.15328 0.36491,4.55425 1.3429,6.66893 1.18266,3.24793 2.97977,6.309 5.24592,8.90795 2.04755,1.23091 4.46675,-0.6402 5.29165,-2.53322 1.09273,-2.16189 -0.0615,-4.76645 1.31374,-6.83924 2.0204,-3.30813 6.05328,-4.63531 8.21448,-7.83921 1.69407,-2.0718 4.57018,-3.83466 7.27874,-2.68812 2.47412,1.076 3.15838,3.96423 3.55549,6.37192 0.11366,2.0519 2.08841,3.00029 3.86286,3.33104 2.49869,0.48817 2.6888,3.46742 2.07293,5.459 -0.87947,2.993 -0.70544,6.59957 1.6079,8.92207 1.01623,0.69415 3.29897,2.22536 1.34007,3.26794 -1.52553,-0.41671 -1.9808,-2.69355 -3.79651,-2.69707 -1.84574,-0.29462 -2.02775,2.43848 -0.70403,3.2243 2.95157,3.35829 4.95742,7.39832 7.56132,11.00246 2.85017,3.2383 6.72193,5.5284 10.82012,6.7847 1.69536,0.35955 4.75458,-0.61223 4.139,-2.7824 -1.09801,-1.73915 -3.38952,-0.87365 -5.03006,-0.75162 -1.4285,0.18878 -3.0029,-0.10264 -3.98909,-1.23262 z M 248.106,203.852 c 0.4707,1.86883 -2.89221,2.1166 -2.97564,0.27348 -0.23776,-1.67146 2.53551,-2.41421 3.0161,-0.74336 l 0.0118,0.22992 z m 32.4,30.247 c -0.97518,-2.47111 -4.46025,-2.59256 -5.32284,-5.11856 0.47803,-2.13859 2.75371,-0.52255 3.63865,0.44182 1.37246,1.24054 2.723,2.78397 3.02157,4.66057 -0.17915,0.56827 -1.06841,0.4274 -1.33738,0.0162 z m 30.424,-64.853 c 2.27231,0.66872 -1.35175,3.75431 -1.32928,1.0168 0.0534,-0.62928 0.66713,-1.23851 1.32928,-1.0168 z m -8.466,61.644 c -1.59943,2.10468 -5.74936,1.53496 -6.24733,-1.21458 -0.0545,-1.93391 0.59564,-4.0069 1.85156,-5.47788 2.11559,-1.85009 5.78368,-0.63792 6.66632,1.94322 1.8895,1.59493 4.94679,1.76004 6.10324,4.18128 0.394,1.89938 -2.21814,2.28643 -3.42732,1.41503 -1.52629,-0.695 -3.26544,-1.73504 -4.94647,-0.84707 z m 10.986,49.104 c -2.80813,-3.94521 -5.35228,-8.19659 -6.52263,-12.93783 -0.97475,-2.2953 -2.45185,-4.4317 -2.80002,-6.95011 1.95969,-0.77056 3.35505,1.38801 3.8749,2.98123 2.41518,5.29336 5.44672,10.30371 7.47721,15.77095 0.14755,1.0006 -1.25444,1.85033 -2.02946,1.13576 z m 12.547,-41.81 c -0.0874,-3.96274 -0.88919,-7.95767 -2.72872,-11.48013 -0.40728,-2.33034 1.97,-4.80665 4.33211,-4.1627 1.76381,1.57872 -1.2531,2.58139 -1.79134,3.8518 -0.78492,1.69485 0.74383,2.99596 1.52674,4.31037 1.04621,1.78039 1.16595,3.87502 1.4479,5.861 0.45359,1.33662 1.44696,3.64823 -0.29424,4.42068 -1.65146,0.46029 -2.55523,-1.43949 -2.49245,-2.80102 z m 35.561,-93.729 c -2.08649,-0.90868 1.80439,-3.53591 1.30365,-0.92422 -0.22166,0.5124 -0.74637,0.88549 -1.30365,0.92422 z m 8.309,20.966 c -1.83348,0.49148 -2.29539,-2.66933 -0.63168,-3.14713 1.78816,-0.6062 2.90975,2.30868 1.26299,3.13496 l -0.29765,0.0619 z"
   id="path3" />
		<path
   fill="#97bf0d"
   d="m 78.988,229.038 c -2.204443,3.19889 -1.252797,7.361 0.159155,10.67663 1.658698,4.15159 4.460644,7.79545 7.921009,10.60895 2.905478,2.8898 3.768958,7.09697 6.17484,10.3392 1.628234,2.49685 3.220835,5.09726 5.291415,7.23737 1.910741,0.73763 3.030201,-2.04489 1.591371,-3.25347 -1.341552,-2.24591 -3.192192,-4.11793 -4.768369,-6.1913 1.015857,-1.92835 2.437837,0.98672 3.038969,1.89979 2.54966,2.91006 5.92118,5.2737 7.36849,9.00467 0.8375,1.98771 0.74647,4.46913 2.57082,5.93628 2.70446,2.02231 6.16337,2.46953 9.25271,3.65079 3.93589,1.06513 8.11596,1.6411 11.58321,3.95139 2.16788,1.22111 4.54991,2.4089 5.74554,4.72648 1.3581,2.72532 4.03535,5.49743 7.34727,5.04301 1.75373,-0.40766 4.2626,-0.76454 5.08654,1.33366 0.82763,2.06055 -0.77805,4.05775 -1.49242,5.9195 -1.22683,2.47032 -3.07779,4.55869 -4.74199,6.70931 -1.47772,3.42807 0.30054,7.29535 2.79354,9.74188 3.08625,3.45287 2.70186,8.93974 6.44008,11.92228 2.43254,1.65044 5.63575,2.73519 6.80104,5.6959 0.98526,2.74582 -0.0752,5.6645 0.22381,8.48596 0.16463,4.80703 -0.90702,9.5389 -2.07308,14.16457 -0.5163,4.28995 -0.74356,8.72771 -2.56185,12.71384 -0.44925,2.49253 1.64099,5.04494 0.27234,7.43053 -1.25448,1.63566 -1.2835,3.79835 -0.72407,5.70289 0.59465,2.09734 1.11046,4.59385 -0.42468,6.44004 -1.29941,1.57434 -2.06881,3.48163 -2.29147,5.5059 -0.4013,2.87704 -0.42142,5.80238 -0.37618,8.69839 0.43876,3.27618 3.49227,5.74416 6.66709,6.15662 1.67342,1.13785 0.70567,3.34946 0.94601,4.98363 0.5624,1.83041 2.7265,1.89191 4.31225,1.88301 2.00033,0.0801 4.23554,0.41693 6.02449,-0.67372 1.78165,-1.76887 -0.2343,-3.89961 -2.05075,-4.44502 -2.58104,-1.65669 -4.9299,-4.76622 -3.93208,-7.97654 0.80443,-2.78811 3.50768,-4.40485 4.67968,-6.9693 0.65323,-2.32606 -2.50359,-4.08376 -1.40206,-6.43939 1.03397,-2.51418 4.05269,-4.10371 3.94315,-7.08029 0.008,-3.41302 2.7928,-5.97616 5.47864,-7.65312 2.0741,-0.93565 5.32534,-1.0743 5.88917,-3.77593 0.0705,-1.87045 -0.0341,-4.20814 1.92836,-5.20302 1.61729,-0.89976 3.66288,-1.33702 4.60014,-3.11051 4.06047,-5.59746 4.96165,-13.10839 10.15511,-17.94559 2.25117,-2.12557 5.29186,-3.03892 7.82554,-4.7179 3.74782,-2.92308 5.22145,-7.79471 5.49606,-12.36215 0.37546,-3.17043 2.44618,-5.70693 4.36979,-8.10744 1.64081,-2.10529 3.23048,-5.11975 1.7536,-7.72318 -1.91793,-3.22607 -5.75513,-4.52484 -9.19494,-5.41751 -2.43733,-0.51895 -4.81547,-1.32342 -6.8991,-2.72228 -1.67517,-0.89169 -3.50912,-2.21281 -5.45743,-1.9702 -2.69573,0.58466 -3.46023,-2.51283 -3.48561,-4.52303 -1.4374,-3.22977 -5.14565,-4.2274 -8.14971,-5.43974 -2.31329,-0.8257 -4.38651,-2.2504 -5.85607,-4.23058 -2.15796,-2.32248 -5.07845,-4.60646 -8.42644,-4.31481 -2.02825,0.45469 -4.40852,0.83987 -6.07296,-0.749 -1.55466,-1.3667 -3.6203,-2.70799 -5.77185,-1.92771 -3.00109,0.88416 -5.55156,2.82508 -7.52874,5.21131 -1.52245,1.61273 -3.05298,3.91387 -5.52587,3.857 -2.95427,-0.36075 -4.84168,-3.86889 -3.6675,-6.56867 0.67843,-2.01746 -0.43313,-4.68844 -2.83265,-4.57741 -2.04804,-0.18994 -3.58914,-2.13133 -2.84875,-4.15079 0.28215,-1.61506 0.5785,-3.89432 -1.17327,-4.79112 -1.66061,-0.63758 -3.06825,0.92395 -4.22527,1.89452 -1.73806,1.83526 -4.7013,2.96932 -7.01778,1.51929 -1.99304,-1.62747 -2.35877,-4.46611 -2.71743,-6.86916 -0.27459,-2.6485 0.2138,-5.79298 2.47108,-7.49145 2.592,-1.51209 5.72387,-1.0174 8.54898,-1.70331 2.03033,-0.29501 4.11463,-0.98077 6.16363,-0.61466 2.69785,1.00969 3.67055,4.03214 4.46669,6.52881 0.52934,1.9212 3.37411,2.68673 4.58452,0.96582 1.18957,-1.72872 0.13196,-3.99697 -1.35865,-5.16387 -1.56901,-1.56371 -1.60119,-4.12412 -0.33885,-5.87907 1.76103,-2.93172 5.61541,-4.01731 6.79192,-7.37176 0.84694,-2.09282 1.38783,-4.41848 3.05927,-6.04913 1.00463,-1.54367 1.15758,-4.39917 3.54044,-4.39184 1.9119,0.12838 3.02513,-1.71489 2.82302,-3.45015 -0.2827,-2.31401 2.45202,-3.3703 4.33936,-2.78248 1.87929,0.42697 4.0841,1.53845 5.85729,0.19574 1.40195,-1.01941 1.12459,-3.23276 -0.25653,-4.12944 -1.46332,-1.20026 -2.57158,-3.09717 -1.91448,-5.01701 0.27204,-1.91036 -1.64324,-2.26183 -2.97281,-2.55752 -0.75982,-2.13937 2.58237,-1.72013 3.8971,-1.64113 2.16773,0.28176 4.72622,0.65462 6.45031,-1.03674 2.12242,-1.76675 5.07119,-3.08446 5.8641,-5.95586 0.32773,-2.54102 -2.26493,-4.00909 -3.92697,-5.42635 -2.75222,-2.13927 -4.73418,-5.22529 -5.40927,-8.65343 -0.65496,-2.02108 -1.47074,-4.38884 -3.5243,-5.35599 -1.80819,-0.36735 -2.58362,1.68444 -3.83241,2.49171 -2.05057,0.9061 -3.90974,-1.45089 -3.57308,-3.39511 0.57748,-2.64969 -1.21445,-4.90106 -3.42058,-6.11105 -2.46452,-1.49035 -5.51601,-2.0143 -8.32571,-1.34988 -2.16531,1.10993 -2.1428,3.92598 -1.6176,5.97369 0.22366,2.62917 -1.23317,5.26582 -0.18449,7.85322 0.59726,1.91175 1.52219,4.31723 -0.0398,6.01838 -1.7858,2.22233 -3.34513,5.29156 -2.14728,8.14507 1.37852,1.81854 -2.09726,3.34115 -2.88746,1.38006 -1.25977,-2.09475 0.0531,-4.97441 -1.81661,-6.84259 -1.66868,-1.94696 -4.35659,-1.37456 -6.59508,-1.70174 -2.13023,-0.12664 -3.09117,-2.14095 -3.92786,-3.79777 -1.02445,-1.92073 -2.30036,-3.91769 -4.38985,-4.79109 -2.41043,-1.42574 -2.60197,-4.93882 -0.94792,-7.02042 1.25954,-1.41478 2.27561,-3.09407 3.78488,-4.26439 1.91169,-1.37746 4.74487,-2.08565 5.55788,-4.54162 0.56116,-2.16185 0.24426,-4.64109 1.76145,-6.47124 1.15499,-1.87544 3.20796,-3.12757 5.39513,-3.28907 2.40651,-1.05407 2.89221,-4.13705 2.29864,-6.43131 -0.34945,-1.94983 0.56958,-4.08659 -0.40975,-5.9066 -1.01747,-1.93131 -4.33894,-1.19516 -4.46024,0.97986 0.0973,1.39218 -0.15821,4.13702 -2.20291,3.43986 -1.36752,-0.81637 -1.9593,-2.67314 -3.75799,-2.82354 -1.73399,-0.50775 -3.08522,-2.20675 -2.75211,-4.06315 0.41824,-2.70759 -0.82136,-6.18941 -3.74933,-6.86046 -2.12344,-0.15142 -3.32862,2.12696 -3.74532,3.913 -0.61136,2.7932 1.06453,5.35587 2.64473,7.48889 1.52153,1.4194 0.74733,4.45559 -1.62238,3.84851 -2.19486,-0.44615 -2.75167,-2.94815 -2.37855,-4.8601 0.65635,-2.09094 -2.20733,-3.51917 -3.59071,-1.93072 -1.69013,1.18677 -1.16664,3.45439 0.39151,4.41076 1.15603,2.58905 -2.17838,3.01316 -3.21608,4.62996 -1.27459,1.90276 -0.34303,4.19678 -0.39164,6.29582 0.21233,6.211 0.0297,12.43936 -0.46827,18.63317 -0.94542,10.31583 -3.21106,20.68882 -8.06805,29.90904 -2.82919,5.0619 -7.602876,9.49364 -13.541557,10.27098 -4.218516,0.56499 -8.471525,-0.62208 -12.250976,-2.44162 -1.472252,0.15589 -0.18395,2.20997 -0.719297,3.0276 z m 68.165,-1.073 c -0.12809,-2.28269 4.24126,-1.3627 2.79878,0.67709 -0.76654,0.9127 -2.57752,0.53899 -2.79878,-0.67709 z m -10.818,-0.486 c 0.18213,1.46741 -1.10443,4.59931 -2.83192,3.05656 -0.87154,-1.42712 -0.27144,-3.53718 1.01244,-4.52545 1.06871,-1.05171 2.9099,0.18032 1.81948,1.46889 z m 10.233,2.846 c 0.50776,2.34298 -4.14985,2.30727 -3.13768,-0.12758 0.60948,-1.10675 2.77446,-1.27866 3.13768,0.12758 z m -14.66,-10.822 c 2.41088,-1.02174 4.63654,1.02456 6.01352,2.78633 1.58733,1.50725 4.33617,0.63701 5.65096,2.5098 1.28939,1.77172 -1.21442,4.34596 -3.01685,3.07102 -1.70669,-1.23048 -2.43137,-3.45579 -4.3846,-4.42639 -1.84249,-1.75033 -4.18667,0.27389 -6.02903,-0.70572 -1.77719,-1.33668 -0.0185,-3.45116 1.766,-3.23504 z"
   id="path4" />
		<path
   fill="#97bf0d"
   d="m 261.546,191.276 c 0.45951,2.60015 4.28225,3.06153 5.74686,1.06712 0.65947,-1.05405 2.33466,-3.30927 3.41181,-1.47161 0.5937,2.0901 -0.39871,4.40987 0.69049,6.42411 1.02994,2.47378 4.69774,2.9374 6.37444,0.88909 1.86125,-1.73899 1.42941,-4.53038 2.74211,-6.56047 0.90405,-1.74689 2.20142,-3.83559 1.31582,-5.82885 -1.31098,-1.87259 -3.80876,-0.88247 -5.54126,-0.32302 -4.38866,1.17747 -8.95798,1.3427 -13.46489,1.57937 -1.82719,0.31677 -2.51454,2.93243 -1.27538,4.22426 z"
   id="path5" />
		<path
   fill="#97bf0d"
   d="m 291.96,118.641 c 2.8309,1.26981 6.00849,-0.64079 7.48188,-3.0886 1.23196,-1.58843 1.01466,-4.05533 -0.68483,-5.22807 -3.2566,-2.16785 -7.92695,-2.95167 -11.35388,-0.71594 -1.93213,1.41977 -2.88526,4.4729 -1.19852,6.4404 1.27563,1.77002 3.51891,3.11938 5.75535,2.59221 z"
   id="path6" />
		<path
   fill="#97bf0d"
   d="m 223.856,169.547 c -1.9027,-1.59896 -5.55988,-1.25061 -6.44702,1.29401 -0.71914,3.11001 1.45613,6.36153 4.24247,7.62068 2.53431,1.06229 5.60161,0.95195 8.02951,-0.33193 1.7362,-1.15269 0.90255,-4.07063 -0.97072,-4.58704 -1.80982,-1.10027 -2.75109,-3.32881 -4.85424,-3.99572 z"
   id="path7" />
		<path
   fill="#97bf0d"
   d="m 120.627,136.728 c 1.33128,-2.03864 -1.09986,-4.50189 -3.22635,-4.23563 -2.295,0.19671 -3.10433,2.65807 -3.2265,4.61746 -0.53906,3.22041 -0.36685,7.11908 2.30166,9.39415 1.76746,1.45537 4.66727,0.66012 5.53651,-1.44523 0.94918,-1.83339 0.3815,-4.0728 -0.89688,-5.5909 -0.46824,-0.81093 -0.84273,-1.81262 -0.48844,-2.73985 z"
   id="path8" />
		<path
   fill="#97bf0d"
   d="m 433.681,306.516 c -0.0942,-2.31627 -3.38792,-3.86888 -2.34548,-6.29611 1.0872,-1.37784 3.23353,0.86488 4.07736,-0.78684 0.20583,-2.15078 -2.76592,-1.83104 -4.10075,-1.3506 -2.59511,0.77765 -4.57541,3.67695 -3.59867,6.36127 0.65256,2.14833 2.40287,4.03568 4.58377,4.63413 1.66685,0.35964 2.30917,-1.36684 1.38377,-2.56185 z"
   id="path9" />
		<path
   fill="#97bf0d"
   d="m 439.728,246.08 c 3.34103,-0.11989 4.63821,-5.36629 1.73431,-7.03826 -1.96925,-1.33936 -5.40877,0.3786 -4.77827,2.90737 0.2737,1.74437 1.3242,3.49861 3.04396,4.13089 z"
   id="path10" />
		<path
   fill="#97bf0d"
   d="m 460.48,231.114 c 1.72853,1.22819 4.02645,0.30189 5.51894,-0.84372 1.09033,-1.71765 -1.39104,-2.6956 -2.55058,-1.50473 -1.06063,0.68067 -2.07724,1.45552 -2.96836,2.34845 z"
   id="path11" />
		<path
   fill="#97bf0d"
   d="m 489.987,314.613 c -0.56692,-1.84593 -3.24034,-0.17934 -2.68239,1.34599 0.40698,1.9868 3.33256,1.00765 2.86968,-0.81455 l -0.07,-0.27066 z"
   id="path12" />
		<path
   fill="#97bf0d"
   d="m 112.994,105.843 c 0.18739,-1.99733 -3.23224,-1.5494 -2.95035,0.31453 -0.061,1.84538 3.04679,2.13577 3.10432,0.20827 l -0.0412,-0.26448 z"
   id="path13" />
		<path
   fill="#97bf0d"
   d="m 160.808,273.271 c -3.29371,-2.42748 -7.69734,-1.73165 -11.28185,-3.46907 -3.32002,-1.12923 -6.45964,-3.46815 -10.12077,-3.0467 -2.11062,0.26683 -2.5049,3.59063 -0.24027,3.96057 2.83688,-0.0473 5.5033,1.12721 7.96314,2.43997 2.50628,1.19967 5.15978,2.06046 7.57453,3.44742 2.05736,1.11756 5.10306,1.23237 6.57602,-0.87702 0.51435,-0.74908 0.56262,-2.1185 -0.4708,-2.45517 z"
   id="path14" />
		<path
   fill="#97bf0d"
   d="m 164.875,274.928 c -2.26697,0.20363 0.75214,3.63736 0.89729,1.06782 -0.0836,-0.47523 -0.42439,-0.92722 -0.89729,-1.06782 z"
   id="path15" />
		<path
   fill="#97bf0d"
   d="m 325.753,318.891 c -3.43884,1.00889 -5.41623,4.24353 -7.94159,6.52998 -1.69183,2.29691 -1.81439,5.27297 -2.30283,7.98944 -0.26622,2.27061 -0.0524,5.03325 1.89324,6.53187 2.23437,1.27258 4.88775,-0.55376 5.57859,-2.77327 0.89354,-2.61886 0.87769,-5.45139 1.78918,-8.07298 0.95385,-3.21478 1.71994,-6.59328 1.2648,-9.96109 -0.0938,-0.0813 -0.1876,-0.16263 -0.28139,-0.24395 z"
   id="path16" />
		<path
   fill="#97bf0d"
   d="m 213.516,124.214 c 2.06325,-1.07013 2.91179,-4.3158 1.09075,-5.98305 -2.2672,-1.1479 -2.22997,3.10914 -4.34949,2.26238 -0.75782,-1.25445 0.37205,-3.36365 -1.40324,-4.35005 -1.61612,-1.4887 -2.72451,-3.49008 -4.38449,-4.91221 -3.18672,-2.3476 -7.70481,-3.95273 -11.43353,-1.89202 -3.4353,1.80404 -5.84834,5.70248 -9.97983,6.03365 -3.33008,0.33918 -6.8229,2.12262 -8.03163,5.42408 -0.81156,2.29716 -4.14741,2.70725 -4.34985,5.31198 0.0533,1.70103 2.01344,3.80759 0.15612,5.18606 -1.67586,1.423 -4.48166,1.4839 -5.42452,3.7198 -0.47438,1.97369 2.31125,3.1429 1.56329,5.19187 -0.8906,1.83604 -1.03098,4.61718 1.56652,5.00178 2.87727,0.91515 5.94056,-0.77118 8.75992,0.32189 2.70342,1.62227 3.11886,5.14667 3.04036,8.01662 -0.1114,2.4923 -0.25236,5.25906 1.41314,7.32549 1.31964,1.60856 2.25863,3.8047 1.17054,5.79001 -0.87686,2.35207 -1.51935,4.90519 -0.88668,7.40556 0.61639,2.9876 1.81478,5.85131 3.25371,8.52571 1.16497,1.95323 4.00061,3.56789 6.03902,1.89992 2.49729,-2.13823 1.90608,-5.84484 3.63646,-8.44837 1.07584,-1.87378 3.32355,-2.48549 4.74795,-4.02631 2.36178,-2.04718 4.52084,-4.68717 7.61067,-5.5878 1.69669,-0.0848 2.20575,-2.13239 1.05378,-3.22147 -1.01067,-2.17066 2.45013,-1.53295 2.35327,-3.46313 0.10516,-1.90828 -1.5947,-3.90805 -0.32901,-5.71509 1.33561,-1.67379 3.64703,-3.32176 2.85729,-5.78741 -0.35523,-1.89502 -2.66893,-4.02839 -0.99822,-5.84846 1.11552,-0.90773 1.57445,-3.53751 -0.45974,-3.48597 -1.28445,0.5428 -3.65538,0.39529 -2.67338,-1.5759 1.34134,-1.33234 1.28306,-3.65808 0.11754,-5.09669 -0.91705,-1.59831 1.23634,-3.8146 2.68809,-2.27495 1.04049,1.45687 2.91411,0.45778 1.80478,-1.17515 -0.63473,-1.3612 -2.00131,-3.45955 -0.21959,-4.57277 z"
   id="path17" />
		<path
   fill="#97bf0d"
   d="m 172.852,164.982 c -3.18392,-0.43089 -5.08613,-3.80822 -5.05251,-6.80642 -0.12186,-2.54497 -2.39482,-4.02632 -4.09512,-5.57292 -1.81303,-1.6328 -3.6199,-3.39011 -5.93105,-4.29828 -2.49382,0.26967 -4.5497,-1.72694 -5.61505,-3.78722 -1.40008,-1.9479 -4.1123,-1.48402 -6.14844,-1.11627 -3.07783,0.69077 -4.41239,4.34049 -3.52196,7.14307 0.63008,2.59231 2.57208,4.55604 4.64873,6.09378 1.56707,1.18215 0.97583,3.86581 2.95913,4.66878 2.35064,0.55198 2.69168,-3.13561 4.94662,-3.08867 4.61142,0.24762 7.18933,6.72133 3.9068,10.02895 -1.04995,1.30038 -3.15007,2.70879 -2.51969,4.55704 1.01395,1.24989 2.90002,0.92624 4.12801,1.89722 1.82505,1.01558 3.09016,2.72514 4.6044,4.09895 2.11122,1.39065 5.6052,0.39031 6.30091,-2.12238 0.28863,-2.24383 -1.92249,-3.47027 -3.28412,-4.75181 -0.51583,-2.38087 1.62826,-0.77607 2.68535,-0.45047 2.65352,0.35857 5.18523,-2.91597 3.52939,-5.26852 -0.34986,-0.56875 -0.88708,-1.04764 -1.5414,-1.22483 z"
   id="path18" />
		<path
   fill="#97bf0d"
   d="m 148.542,127.307 c -0.95866,2.35963 1.45591,4.31627 3.50182,4.88294 2.09613,1.01041 4.77665,0.24612 5.70305,-1.97218 1.65998,-3.30008 3.70374,-6.43464 6.25004,-9.11849 2.67608,-2.45057 6.28019,-3.97562 8.10887,-7.26898 1.62219,-2.13249 3.15004,-4.95916 1.96917,-7.65965 -1.23651,-3.31603 -4.85896,-5.33437 -8.32771,-5.01787 -2.35305,-0.0177 -4.56032,0.9475 -6.53105,2.14376 -2.24095,0.95343 -5.16573,1.52473 -6.18179,4.04017 -0.42906,2.00892 1.84782,3.4224 3.64596,3.13593 1.47063,-0.58551 4.38132,1.19487 2.41538,2.50562 -1.32957,0.58052 -2.96001,0.62783 -3.93854,1.85894 -1.16611,1.1694 -1.57083,2.90845 -1.28435,4.49668 -0.40577,2.86823 -3.44717,4.18383 -4.58698,6.68258 -0.2499,0.42906 -0.49067,0.86341 -0.74387,1.29055 z"
   id="path19" />
		<path
   fill="#97bf0d"
   d="m 143.442,117.947 c -0.47034,2.373 2.51423,3.99884 4.50715,3.03061 2.37071,-0.87519 3.34179,-3.74201 2.65834,-6.04812 -0.49859,-3.23112 -1.02959,-6.92132 -3.71474,-9.12209 -1.79804,-1.50988 -4.31808,0.37019 -4.52601,2.3981 -0.59455,3.3079 1.40153,6.43372 1.07526,9.7415 z"
   id="path20" />
		<path
   fill="#97bf0d"
   d="m 145.218,128.696 c -1.60132,-2.00276 -4.44101,-1.60497 -6.67205,-1.24584 -1.93903,0.26041 -3.5934,-0.9796 -4.6975,-2.44893 -1.25884,-1.50943 -2.96431,-3.35652 -5.11815,-2.90205 -2.02186,0.67327 -1.0998,3.08407 0.57935,3.48264 1.66499,0.82023 2.32122,2.75754 2.50117,4.48718 1.75925,2.51641 5.17313,2.92508 8.0176,2.79478 2.1592,-0.17079 5.04499,-0.96439 5.46597,-3.44186 0.0191,-0.24393 -0.007,-0.49124 -0.0764,-0.72592 z"
   id="path21" />
		<path
   fill="#97bf0d"
   d="m 124.37,101.588 c -1.8964,-1.57384 -3.80419,-3.766766 -6.48966,-3.67087 -1.82903,0.35759 -1.45397,2.79107 -0.3164,3.73541 1.22476,1.171 1.95884,2.73572 2.09163,4.4246 -0.0999,1.69422 0.96132,3.72566 2.94283,2.87678 1.74173,-0.39346 3.90537,-1.02094 4.13535,-3.13207 0.1434,-1.5585 -0.18523,-4.48919 -2.36375,-4.23385 z"
   id="path22" />
		<path
   fill="#97bf0d"
   d="m 135.293,135.081 c -2.27426,-2.41869 -6.9988,-0.34547 -6.83274,2.95216 -0.005,2.46401 -0.0282,5.17676 1.3638,7.31263 1.37649,1.64235 2.85833,-0.67121 3.13253,-1.99807 0.95499,-2.25585 3.65857,-3.66307 3.62483,-6.33771 -0.0262,-0.80826 -0.475,-1.67473 -1.28842,-1.92901 z"
   id="path23" />
		<path
   fill="#97bf0d"
   d="m 124.121,124.314 c -1.66367,-0.36409 -4.88521,1.73632 -5.23565,-0.9838 0.28503,-1.72464 1.17869,-3.4288 0.5885,-5.21662 -0.0233,-2.14303 -3.49539,-2.98221 -3.13989,-0.30201 0.62668,2.10434 -1.45409,2.06049 -2.82731,2.38243 -0.99109,1.3745 0.61121,2.77243 1.4712,3.74715 2.15326,2.28642 5.04831,4.4433 8.33961,4.28684 2.40647,-0.009 2.93077,-2.85792 0.80354,-3.91399 z"
   id="path24" />
		<path
   fill="#97bf0d"
   d="m 139.589,171.072 c -2.74676,-0.6681 -4.88576,3.16414 -3.12363,5.27202 1.67269,2.15469 5.70451,1.67704 6.8615,-0.77448 0.63922,-1.71059 -0.74481,-3.68599 -2.48766,-3.96238 -0.42092,-0.16814 -0.84575,-0.32919 -1.25021,-0.53516 z"
   id="path25" />
		<path
   fill="#97bf0d"
   d="m 143.789,136.208 c 0.30257,3.57978 5.95541,4.40344 7.5027,1.26701 1.12697,-2.28499 -1.44095,-4.66461 -3.70252,-4.41984 -1.73732,0.067 -3.60796,1.31713 -3.80018,3.15283 z"
   id="path26" />
		<path
   fill="#97bf0d"
   d="m 131.362,111.335 c 2.02629,0.48926 3.07843,-2.20834 2.23574,-3.76547 -0.42616,-1.78863 -1.99177,-4.47429 -4.1686,-3.55975 -2.13063,1.31924 -1.37932,4.45379 0.0865,5.9975 0.51186,0.56666 1.14264,1.02869 1.84636,1.32772 z"
   id="path27" />
		<path
   fill="#97bf0d"
   d="m 118.666,114.32 c 1.86733,0.47031 2.48493,-2.28181 1.3571,-3.39773 -0.94302,-1.50391 -3.57374,-0.62967 -3.11681,1.18735 0.21811,0.94687 0.93823,1.72933 1.75971,2.21038 z"
   id="path28" />
		<path
   fill="#97bf0d"
   d="m 149.991,176.162 c -2.19678,0.26155 0.37993,3.68905 1.2589,1.53489 0.30852,-0.78441 -0.39135,-1.7783 -1.2589,-1.53489 z"
   id="path29" />
		<path
   fill="#97bf0d"
   d="m 479.022,304.194 c -3.44455,0.33346 -4.90897,4.56099 -8.3806,4.77849 -2.75568,-0.19926 -4.47474,-2.76812 -6.99824,-3.6186 -2.46564,-0.97057 -5.00671,-2.46901 -7.75392,-2.00788 -1.59707,0.61586 -3.9266,2.13648 -5.31335,0.39318 -0.62186,-1.55963 -2.72652,-3.05271 -4.04098,-1.29886 -1.41232,1.88836 0.32671,4.29388 2.19728,5.01335 3.20215,1.49377 7.16055,2.22035 9.22356,5.38235 0.85087,2.30473 3.88964,2.69215 5.81162,1.54082 1.96209,-1.01802 4.385,-0.24712 5.5252,1.60682 1.03465,1.38299 3.63048,2.35068 4.69712,0.51395 1.04799,-1.88024 -2.16104,-2.44691 -1.54854,-4.37708 0.76938,-2.29825 4.24217,-1.33157 5.60353,-3.30815 1.19414,-1.11732 1.99495,-3.13407 0.97732,-4.61839 z"
   id="path30" />
		<path
   fill="#97bf0d"
   d="m 426.299,291.733 c -2.00884,-1.64755 -4.80433,0.1931 -5.57088,2.29424 -1.01043,1.97165 -2.78977,3.30416 -4.6001,4.48305 -1.80713,1.18601 -3.55909,3.44067 -2.52646,5.68386 1.25463,2.15681 4.03003,3.39064 6.47991,2.95335 3.18538,-0.68403 4.82353,-3.94689 5.34656,-6.8946 0.3319,-2.00735 0.67401,-4.01608 1.50826,-5.89054 0.40901,-0.87298 0.32603,-2.15654 -0.63729,-2.62936 z"
   id="path31" />
		<path
   fill="#97bf0d"
   d="m 447.558,249.798 c 0.55126,-2.50712 3.53123,-2.82881 5.6519,-2.75524 5.39373,-0.66542 9.35761,-6.4766 8.44101,-11.74171 -0.0771,-2.0685 -3.10101,-2.44105 -3.83492,-0.57754 -1.29305,2.06499 -1.04662,4.98086 -3.19042,6.52048 -2.70589,2.37399 -6.83715,1.43891 -9.5391,3.83164 -1.97449,1.4378 -2.71916,4.65128 -0.80529,6.45123 1.52627,1.61957 3.49356,0.21267 3.27682,-1.72886 z"
   id="path32" />
		<path
   fill="#97bf0d"
   d="m 437.163,287.267 c -2.80415,0.36761 -5.18311,-2.97114 -4.05573,-5.52523 1.24226,-0.96051 0.98174,-2.80128 -0.18683,-3.69116 -1.01182,-1.34607 0.44542,-2.75858 0.0985,-4.14755 -0.47505,-1.89881 -3.09182,-1.96253 -4.16162,-0.54758 -2.10744,2.10308 -1.76318,5.47835 -0.35082,7.85739 1.63091,2.97321 3.82022,5.90352 3.91709,9.42965 1.04055,3.09554 6.10861,2.61101 6.92741,-0.40909 0.51767,-1.40055 -0.57768,-3.2711 -2.18795,-2.96643 z"
   id="path33" />
		<path
   fill="#97bf0d"
   d="m 427.252,284.699 c -2.39507,-0.58663 -2.67615,4.03753 -0.10738,3.46534 1.54143,-0.33841 2.14102,-3.49312 0.10738,-3.46534 z"
   id="path34" />
		<path
   fill="#97bf0d"
   d="m 441.027,301.296 c 2.0167,0.22423 2.18331,-3.21921 0.31677,-3.54494 -2.11107,-0.42472 -2.70132,3.11202 -0.66641,3.53521 z"
   id="path35" />
		<path
   fill="#97bf0d"
   d="m 481.22,313.009 c -2.08401,-0.0186 -1.14093,3.8513 0.72472,2.71445 1.01717,-0.71477 0.58982,-2.66716 -0.72472,-2.71445 z"
   id="path36" />
		<path
   fill="#97bf0d"
   d="m 481.273,308.482 c -1.91767,0.0328 -0.85206,3.45364 0.79348,2.44535 1.01323,-0.73689 0.37106,-2.33956 -0.79348,-2.44535 z"
   id="path37" />
		<path
   fill="#97bf0d"
   d="m 461.282,287.7 c 0.0183,1.95352 3.60387,0.99932 2.61388,-0.73082 -0.6568,-1.07633 -2.77973,-0.66053 -2.61388,0.73082 z"
   id="path38" />
		<path
   fill="#97bf0d"
   d="m 443.25,305.186 c -1.56775,-1.50047 -3.63355,2.14653 -1.27786,2.43483 1.19477,0.14368 2.54663,-1.59738 1.27786,-2.43483 z"
   id="path39" />
		<path
   fill="#97bf0d"
   d="m 436.112,285.336 c 1.95259,0.0685 0.92125,-3.51716 -0.73234,-2.39532 -0.93925,0.64641 -0.53608,2.55752 0.73234,2.39532 z"
   id="path40" />
		<path
   fill="#97bf0d"
   d="m 437.098,303.553 c -2.26101,0.62692 1.51599,3.40889 1.07205,0.79701 -0.18537,-0.42441 -0.60455,-0.7574 -1.07205,-0.79701 z"
   id="path41" />
		<path
   fill="#97bf0d"
   d="m 488.649,308.893 c -2.07287,1.19537 2.4187,2.71919 0.96637,0.32475 -0.23132,-0.27104 -0.61415,-0.42625 -0.96637,-0.32475 z"
   id="path42" />
		<path
   fill="#97bf0d"
   d="m 320.89,116.329 c 2.62635,-0.69121 4.29286,2.66766 6.88893,2.0955 1.8213,-0.70812 2.22675,-4.19687 4.67994,-3.31594 1.71402,1.11509 0.024,2.79601 -1.30311,3.22735 -1.55165,0.74548 -0.85866,3.47529 0.95705,3.0081 1.69811,-0.40668 3.26024,-1.34404 5.05176,-1.4532 3.39935,-0.37943 7.13396,-1.13988 9.45788,-3.87864 0.89434,-1.08206 1.86208,-3.16331 0.24662,-4.06491 -1.26489,-0.2841 -3.40457,1.7284 -3.75874,-0.67372 0.43751,-1.28939 0.33419,-3.48764 -1.46896,-3.54255 -2.81696,-0.30847 -4.53882,2.34112 -6.75498,3.53801 -1.86917,1.29859 -3.57901,-0.91671 -5.40245,-0.30039 -1.49474,1.02031 -3.3375,1.13773 -4.70131,-0.18328 -2.00282,-0.8194 -4.45925,0.75513 -5.33818,2.57769 -0.58929,1.1838 -0.009,2.87525 1.44555,2.96598 z"
   id="path43" />
		<path
   fill="#97bf0d"
   d="m 349.673,109.791 c 2.07543,0.50901 1.91177,-3.51929 -0.18685,-2.6963 -1.15972,0.45414 -1.33079,2.65721 0.18685,2.6963 z"
   id="path44" />
	</g><g
   id="Ebene_10"
   style="display:inline;fill:none;fill-opacity:1"
   inkscape:label="outline"
   transform="matrix(0.04896364,0,0,0.04896264,0.2573636,-3.8714566)">
	<path
   id="path1"
   style="fill:#97bf0d"
   d="m 236.59323,390.12488 c -1.66144,2.90621 -1.80891,6.59293 0.0588,9.75352 l 4.87666,8.46088 c 0.0303,-0.48521 0.11751,-0.97738 0.11751,-1.4689 0,-6.95319 -2.33291,-12.40877 -5.05292,-16.7455 z" /><path
   id="path52"
   style="fill:#97bf0d"
   d="m 309.86063,75.191995 c -14.47504,0 -24.54074,3.072238 -31.0226,9.459738 -6.48187,6.387501 -7.28561,14.698166 -7.28561,19.213257 0,14.0089 9.56683,22.9211 15.92258,28.90802 6.35575,5.98692 9.34204,9.09046 9.34204,13.10261 0,13.61742 -4.4402,19.8466 -10.92842,24.32504 -6.48822,4.47844 -16.14253,6.52194 -25.20587,6.52194 -5.94111,0 -15.72379,-3.37089 -23.03193,-9.45974 -7.30814,-6.08885 -12.22103,-14.07725 -12.22103,-23.91375 0,-5.61701 0.77566,-8.31491 1.41012,-9.75352 0.6343,-1.43824 1.22808,-2.08048 2.9965,-3.8779 2.11428,-2.14817 5.19525,-4.42524 8.51947,-8.28462 3.32421,-3.85938 6.46304,-10.01579 6.46304,-16.98052 0,-11.218214 -7.64272,-20.811593 -16.33387,-24.501308 -8.69114,-3.689714 -18.10454,-4.11293 -27.67358,-4.11293 -19.27742,0 -90.07131,3.055319 -90.07131,3.055319 l -10.928418,0.411293 1.057588,10.928641 c 0,0 5.89848,63.843035 4.93542,91.659575 -0.18549,5.34362 -1.36129,16.37323 -4.23036,24.73633 -1.43454,4.18154 -3.31194,7.60589 -4.935415,9.40098 -1.623474,1.79509 -2.244371,2.11522 -3.877825,2.11522 -5.970421,0 -8.378689,-3.00912 -14.864999,-9.45974 -6.48631,-6.45062 -16.946683,-15.45286 -32.902763,-15.45286 -9.744171,0 -22.437137,3.15375 -32.961519,13.22013 -10.5243822,10.06638 -17.8614998,26.64682 -17.8614997,50.35401 -1e-7,37.47018 24.2129557,59.93125 47.5914967,59.93125 15.054789,0 24.595425,-7.68162 29.965017,-12.51505 5.369591,-4.83342 6.737875,-7.16825 17.156441,-7.16825 9.560164,0 11.239086,2.64645 13.513636,7.75581 2.27454,5.10936 2.87899,13.31001 2.87899,19.80082 0,11.83334 -3.21708,50.14798 -9.400789,87.84042 l -1.703893,10.34108 10.340872,1.58641 c 5.15869,0.79058 11.56088,1.46768 23.44322,5.2293 17.05896,5.39666 32.27533,10.16481 60.7526,10.16481 15.02537,0 27.33312,-2.74166 36.72183,-8.10835 8.94404,-5.11251 15.48962,-13.56698 16.09885,-23.32618 l -4.87666,-8.46088 c -1.86766,-3.16059 -1.72019,-6.84731 -0.0588,-9.75352 -2.13976,-3.41159 -4.49441,-6.18972 -6.22802,-7.99084 -3.93734,-4.09066 -5.52297,-4.57002 -5.52297,-13.16137 0,-7.76047 3.11525,-12.11655 9.16577,-16.04043 6.05052,-3.92389 15.3343,-6.34566 24.79459,-6.34566 7.98805,0 15.6099,1.87628 21.44555,5.11178 -0.60468,-5.31868 -1.11635,-10.61841 -1.11635,-16.09918 0,-2.26682 0.16654,-4.5405 0.29378,-6.81571 -6.70358,-2.04628 -13.70977,-2.9378 -20.62298,-2.9378 -12.69881,0 -25.565,2.7816 -36.13429,9.636 -10.56929,6.85441 -18.56656,18.87616 -18.56656,33.491 0,13.78397 6.82445,22.92658 11.28095,27.55663 4.45651,4.63005 5.52296,4.16487 5.52296,10.34108 0,1.62868 -0.76719,3.87057 -5.81674,6.75695 -5.04956,2.88638 -14.00876,5.40556 -26.38096,5.40556 -26.31687,0 -37.37904,-3.80065 -54.52458,-9.22471 -6.54181,-2.07087 -11.95204,-3.35185 -16.33387,-4.23044 5.28185,-34.8455 8.16692,-67.14911 8.16693,-80.96595 0,-7.01799 0.0226,-17.78441 -4.64164,-28.2617 -4.6642,-10.47729 -16.35461,-20.03585 -32.491476,-20.03585 -15.636881,0 -25.479798,7.52572 -31.022605,12.51506 -5.542808,4.98935 -6.57619,7.10949 -16.098853,7.10949 -9.659227,0 -26.79225,-10.29706 -26.79225,-39.13158 0,-19.63204 5.436697,-29.61012 11.398458,-35.31244 5.961761,-5.70232 13.462513,-7.52078 18.625314,-7.52078 9.070384,0 12.240694,3.46083 18.272785,9.45973 6.032091,5.9989 15.073793,15.45287 29.494977,15.45287 7.83517,0 14.79203,-3.97781 19.27162,-8.93094 4.4796,-4.95313 7.16158,-10.7272 9.16577,-16.56923 4.00838,-11.68407 5.10483,-23.82036 5.3467,-30.78821 0.9255,-26.73152 -2.78534,-68.92306 -4.11285,-83.433712 15.33553,-0.623974 63.79445,-2.526514 78.37908,-2.526514 8.56177,0 15.98973,0.890998 19.5654,2.409002 3.57567,1.518004 3.6428,1.070394 3.6428,5.405564 0,1.9948 -0.0648,1.97298 -1.35136,3.46661 -1.28652,1.49364 -4.17719,3.71058 -7.63814,7.22701 -1.95849,1.99059 -5.05828,5.2634 -7.1681,10.0473 -2.10982,4.78389 -3.17277,10.62993 -3.17277,18.15564 0,16.90404 8.75981,30.79474 19.6829,39.89542 10.92309,9.10069 23.94068,14.21898 36.31055,14.21898 11.88756,0 25.48406,-2.20525 37.01561,-10.16481 11.53156,-7.95957 19.85917,-22.38728 19.85917,-41.42308 0,-13.81488 -9.59459,-22.35626 -15.86383,-28.2617 -6.26925,-5.90544 -9.34204,-9.11257 -9.34204,-13.74893 0,-2.71595 0.0973,-3.51915 1.05759,-4.465468 0.9603,-0.946319 4.91726,-3.407855 16.45138,-3.407855 23.96947,0 66.18086,6.068313 89.42501,9.518493 -0.22914,10.93085 -0.75237,22.16073 -1.35136,33.491 h 20.858 c 0.76154,-14.25302 1.40386,-28.42121 1.46888,-42.421932 l 0.0587,-8.989689 -8.87199,-1.351391 C 391.46191,83.246265 340.25535,75.191995 309.86063,75.191995 Z" /><path
   fill="#707072"
   d="m 111.20457,89.238051 c 0,0 5.99863,63.303869 4.96965,93.024259 -0.42735,12.31147 -4.49996,46.25005 -23.437206,46.25005 -20.391605,0 -22.719373,-24.89903 -47.745837,-24.89903 -14.906973,0 -40.4257768,9.86779 -40.4257768,53.20702 0,33.15235 20.6830698,49.52497 37.2019558,49.52497 24.577452,0 21.0858,-19.64554 47.141247,-19.64554 25.697027,0 26.726007,24.41889 26.726007,37.9277 0,13.50781 -3.26813,51.29748 -9.53557,89.50026 4.74514,0.7272 12.36553,1.60145 24.97919,5.59458 17.1028,5.41052 30.21865,9.68473 57.61621,9.68473 27.39756,0 42.57532,-10.50296 42.57532,-22.50935 0,-18.59925 -16.7877,-15.55339 -16.7877,-37.92871 0,-22.37531 22.16007,-32.74424 44.31917,-32.74424 22.16106,0 44.54466,10.86907 44.54466,38.06675 0,24.55693 -14.05818,18.69027 -14.05818,39.01901 0,20.32773 24.03883,19.78258 30.08374,19.78258 6.04393,0 66.07751,-1.99956 93.47507,-7.68517 -1.0733,-14.46208 -4.9214,-72.62849 -4.9214,-90.50054 0,-23.64967 10.83239,-25.96833 16.60652,-25.96833 17.32533,0 18.13178,13.41679 42.57433,13.41679 22.11577,0 43.64565,-21.55708 43.64565,-54.34534 0,-29.60735 -20.41228,-42.29493 -37.19998,-42.29493 -16.7877,0 -22.42692,14.73416 -51.30445,14.73416 -10.20417,0 -17.01023,-4.13817 -17.01023,-24.33087 0,-40.68348 4.47632,-81.22192 4.65455,-119.604756 -20.05288,-3.001847 -71.58281,-10.91608 -100.05367,-10.91608 -26.00916,0 -27.88891,11.052119 -27.88891,18.283166 0,18.64526 25.24999,24.19383 25.24999,42.02086 0,32.65321 -25.5641,41.20262 -46.515,41.20262 -18.31099,0 -45.61795,-17.0088 -45.61795,-43.74934 0,-13.14271 3.62458,-17.12183 7.35255,-20.9109 5.57523,-5.6646 12.00908,-9.05856 12.00908,-18.01809 0,-15.553392 -15.46823,-18.192137 -33.59903,-18.192137 -18.13079,0 -89.624,3.003848 -89.624,3.003848 z"
   id="path1-6"
   style="display:none;fill:none;fill-opacity:1;stroke:#97bf0d;stroke-width:12.8788;stroke-dasharray:none;stroke-opacity:1"
   inkscape:label="stroke" />
</g>

<path
   d="m 21.245632,15.241575 a 2.952745,2.952745 0 0 1 -2.952745,-2.952745 2.952745,2.952745 0 0 1 2.952745,-2.9527451 2.952745,2.952745 0 0 1 2.952745,2.9527451 2.952745,2.952745 0 0 1 -2.952745,2.952745 m 6.268256,-2.134412 c 0.03374,-0.269966 0.05906,-0.539931 0.05906,-0.818333 0,-0.278401 -0.02531,-0.556803 -0.05906,-0.843641 l 1.780084,-1.375135 c 0.160292,-0.1265471 0.202473,-0.3543301 0.101232,-0.5399311 l -1.687279,-2.919 c -0.101236,-0.185602 -0.329019,-0.261529 -0.51462,-0.185602 l -2.100667,0.843642 c -0.438694,-0.32902 -0.894261,-0.615858 -1.425754,-0.826769 l -0.312148,-2.235649 c -0.03375,-0.202474 -0.21091,-0.35433 -0.421821,-0.35433 h -3.374566 c -0.21091,0 -0.388075,0.151856 -0.42182,0.35433 l -0.312147,2.235649 c -0.531495,0.210911 -0.987061,0.497749 -1.425754,0.826769 L 15.29796,6.4255209 c -0.1856,-0.07593 -0.413384,0 -0.514621,0.185602 l -1.687283,2.919 c -0.109674,0.185601 -0.05906,0.413384 0.101232,0.5399291 l 1.780084,1.375137 c -0.03374,0.286838 -0.05906,0.56524 -0.05906,0.843641 0,0.278402 0.02532,0.548367 0.05906,0.818333 l -1.780084,1.400444 c -0.160292,0.126547 -0.21091,0.35433 -0.101232,0.53993 l 1.687283,2.919 c 0.101232,0.185601 0.329021,0.253093 0.514621,0.185601 l 2.100668,-0.852077 c 0.438693,0.337457 0.894259,0.624295 1.425754,0.835205 l 0.312147,2.235649 c 0.03374,0.202474 0.21091,0.35433 0.42182,0.35433 h 3.374566 c 0.210911,0 0.388075,-0.151856 0.421821,-0.35433 l 0.312148,-2.235649 c 0.531493,-0.219348 0.98706,-0.497748 1.425754,-0.835205 l 2.100666,0.852078 c 0.185602,0.06749 0.413385,0 0.514621,-0.185602 l 1.687284,-2.918999 c 0.101232,-0.185601 0.05906,-0.413384 -0.101232,-0.539931 z"
   id="path1-67"
   style="stroke-width:0.843642" /></svg>
