<svg xmlns="http://www.w3.org/2000/svg" xml:space="preserve" width="20" height="20" viewBox="0 -4.729 29.459 29.459">
    <path d="m17.296-.454-.038.002h-.1a.6.6 0 0 0-.127.018c-.56.059-.637.246-.875.48-.367.363-.414.837-.414 1.093 0 .795.543 1.297.903 1.637.361.34.533.52.533.748 0 .773-.253 1.124-.622 1.378-.368.254-.915.371-1.43.371-.337 0-.894-.192-1.308-.538-.415-.345-.69-.8-.69-1.358 0-.318.04-.473.077-.555.036-.081.07-.116.17-.218.12-.122.297-.25.486-.47.188-.218.365-.57.365-.966 0-.637-.433-1.18-.926-1.39s-1.028-.23-1.571-.23c-1.094 0-5.112.17-5.112.17l-.619.026.058.619s.333 3.625.279 5.204c-.01.303-.076.929-.239 1.404a1.6 1.6 0 0 1-.282.532c-.092.102-.126.118-.219.118-.338 0-.474-.17-.842-.535-.369-.366-.962-.878-1.868-.878-.553 0-1.275.18-1.872.751S0 8.473 0 9.82c0 2.126 1.375 3.397 2.701 3.397.855 0 1.396-.433 1.7-.707.305-.275.385-.406.976-.406.542 0 .639.15.768.44.13.29.158.754.158 1.122 0 .672-.181 2.847-.532 4.986l-.095.587.587.089c.293.045.655.085 1.329.299.968.306 1.833.575 3.45.575.852 0 1.55-.155 2.082-.46.533-.305.92-.818.92-1.407 0-.705-.417-1.172-.64-1.404s-.311-.26-.311-.748c0-.44.174-.689.517-.912.344-.222.873-.356 1.41-.356.533 0 1.046.139 1.387.388.34.25.552.572.552 1.182 0 .585-.075.601-.259.817-.183.217-.54.686-.54 1.399 0 .404.135.774.356 1.038s.502.662.86.656c.534-.008.477.066 1.036.02v-.006l2.966.04q.195.003.342-.12a.4.4 0 0 0 .147-.32l.394-2.747a7 7 0 0 0 1.766-1.03l2.601 1.03a.47.47 0 0 0 .391.023q.196-.074.245-.221l2.112-3.63a.6.6 0 0 0 .071-.366.56.56 0 0 0-.17-.32l-2.209-1.717.05-1.03-.05-1.033 2.21-1.714a.56.56 0 0 0 .17-.32.62.62 0 0 0-.072-.368l-2.112-3.63q-.049-.149-.245-.222a.47.47 0 0 0-.39.023l-2.602 1.033q-.882-.688-1.766-1.033l-.394-2.747a.39.39 0 0 0-.147-.317.52.52 0 0 0-.342-.124h-3.84c-.08 0-.174-.004-.242-.002M11.729.725c.486 0 .905.052 1.108.138.202.086.21.059.21.305 0 .113-.008.114-.081.199-.073.084-.235.211-.432.41a1.9 1.9 0 0 0-.408.57c-.12.272-.178.603-.178 1.03 0 .96.496 1.748 1.116 2.265.62.516 1.36.808 2.063.808.674 0 1.445-.127 2.1-.578.654-.452 1.127-1.267 1.127-2.348 0-.784-.544-1.27-.9-1.605a5 5 0 0 1-.305-.308h1.332v-.003h1.57l.395 2.748a5.6 5.6 0 0 1 3.187 1.864l2.503-1.079.786 1.375-2.21 1.62q.637 1.864 0 3.777l2.21 1.62-.786 1.323-2.552-1.079q-1.274 1.473-3.138 1.865l-.394 2.747h-.487v.003h-2.197c.03-.12.091-.165.23-.328.215-.254.538-.77.538-1.58 0-.933-.424-1.69-1.033-2.134-.609-.445-1.358-.616-2.083-.616-.72 0-1.451.16-2.051.55-.6.389-1.053 1.069-1.053 1.898 0 .783.386 1.303.639 1.565.253.263.313.237.313.587 0 .093-.041.22-.328.383-.286.164-.796.308-1.499.308-1.493 0-2.12-.216-3.092-.524a9 9 0 0 0-.93-.242c.3-1.977.464-3.81.464-4.594 0-.398.003-1.008-.262-1.602s-.928-1.14-1.844-1.14c-.888 0-1.45.428-1.764.711s-.371.406-.912.406c-.548 0-1.521-.585-1.521-2.221 0-1.114.308-1.685.647-2.008a1.56 1.56 0 0 1 1.058-.423c.515 0 .694.194 1.036.535.342.34.856.877 1.674.877.445 0 .84-.225 1.094-.506s.407-.61.52-.94c.228-.664.292-1.352.305-1.747.053-1.517-.157-3.912-.233-4.735.87-.036 3.62-.147 4.448-.147" style="display:inline;stroke-width:.0490633;fill:#97bf0d;fill-opacity:1"/>
</svg>
