<?xml version="1.0" encoding="UTF-8" standalone="no"?>
<!-- Created with Inkscape (http://www.inkscape.org/) -->

<svg
   width="100mm"
   height="100mm"
   viewBox="-5 0 100 100"
   version="1.1"
   id="svg1"
   xml:space="preserve"
   inkscape:version="1.4 (1:1.4+202410161351+e7c3feb100)"
   sodipodi:docname="cat_cicle.svg"
   xmlns:inkscape="http://www.inkscape.org/namespaces/inkscape"
   xmlns:sodipodi="http://sodipodi.sourceforge.net/DTD/sodipodi-0.dtd"
   xmlns="http://www.w3.org/2000/svg"
   xmlns:svg="http://www.w3.org/2000/svg"><sodipodi:namedview
     id="namedview1"
     pagecolor="#ffffff"
     bordercolor="#666666"
     borderopacity="1.0"
     inkscape:showpageshadow="2"
     inkscape:pageopacity="0.0"
     inkscape:pagecheckerboard="0"
     inkscape:deskcolor="#d1d1d1"
     inkscape:document-units="mm"
     inkscape:zoom="1.5898034"
     inkscape:cx="170.77583"
     inkscape:cy="186.18654"
     inkscape:window-width="1920"
     inkscape:window-height="1029"
     inkscape:window-x="0"
     inkscape:window-y="0"
     inkscape:window-maximized="1"
     inkscape:current-layer="g53"
     showguides="true" /><defs
     id="defs1"><inkscape:path-effect
       effect="envelope"
       id="path-effect55"
       is_visible="true"
       lpeversion="1"
       yy="true"
       xx="true"
       bendpath1="m 22.322876,41.473249 66.746202,1.2757"
       bendpath2="M 89.069078,42.111099 V 116.67985"
       bendpath3="M 22.539583,118.82238 89.069078,116.042"
       bendpath4="M 22.322876,44.024648 V 118.5934"
       bendpath3-nodetypes="cc"
       bendpath4-nodetypes="cc"
       bendpath1-nodetypes="cc" /><inkscape:path-effect
       effect="perspective-envelope"
       up_left_point="22.322876,42.111099"
       up_right_point="89.069078,42.111099"
       down_left_point="22.322876,116.67985"
       down_right_point="89.069078,116.67985"
       id="path-effect54"
       is_visible="false"
       lpeversion="1"
       deform_type="perspective"
       horizontal_mirror="false"
       vertical_mirror="false"
       overflow_perspective="false" /><inkscape:path-effect
       effect="perspective-envelope"
       up_left_point="22.62,42.111099"
       up_right_point="88.47,42.111099"
       down_left_point="22.322876,116.67985"
       down_right_point="89.069078,116.67985"
       id="path-effect53"
       is_visible="true"
       lpeversion="1"
       deform_type="perspective"
       horizontal_mirror="false"
       vertical_mirror="false"
       overflow_perspective="false" /></defs><g
     inkscape:label="Layer 1"
     inkscape:groupmode="layer"
     id="layer1"
     transform="translate(-111.0373,-196.64039)"><g
       id="g53"
       transform="matrix(1.3495039,0,0,1.3449832,81.058973,139.79088)"><path
         style="fill:#d22422;fill-opacity:1;stroke:none;stroke-width:0.196389px;stroke-linecap:butt;stroke-linejoin:miter;stroke-opacity:1"
         d="m 43.636885,43.843577 c -0.143002,0.37808 -0.06502,0.830455 -0.327346,1.163358 -0.229897,0.400081 -0.155585,0.875705 -0.159011,1.314432 -0.05008,0.303763 -0.210672,0.592311 -0.175166,0.907349 -0.06013,0.392454 -0.225438,0.781224 -0.146411,1.183794 0.01813,0.770236 -0.06179,1.547658 0.06003,2.312106 0.18809,0.633473 0.718818,1.097769 0.896684,1.736217 0.174172,0.383071 0.382134,0.754025 0.48799,1.164217 0.08096,0.282634 0.331352,0.528126 0.641012,0.506167 0.253737,-0.02742 0.506998,-0.02658 0.761509,-0.013 0.275848,0.0085 0.553112,-0.05074 0.791391,-0.192391 0.513429,-0.246246 1.017802,-0.514423 1.552846,-0.711901 0.36326,-0.168184 0.733696,-0.333871 1.059162,-0.568771 0.305456,-0.296928 0.368328,-0.7461 0.407703,-1.150079 0.0064,-0.512212 -0.192713,-1.027663 -0.532422,-1.409359 -0.379313,-0.381602 -0.759197,-0.763764 -1.109935,-1.172187 -0.19143,-0.208639 -0.301651,-0.470687 -0.454967,-0.704211 -0.141696,-0.212092 -0.334983,-0.383052 -0.493713,-0.579635 -0.314154,-0.481603 -0.581375,-0.992516 -0.896442,-1.473142 -0.232112,-0.287745 -0.544897,-0.497071 -0.776388,-0.786148 -0.241595,-0.266753 -0.513122,-0.505369 -0.760113,-0.765776 -0.20864,-0.279416 -0.364293,-0.668349 -0.742986,-0.748789 l -0.04148,-0.0077 -0.04194,-0.0046 z"
         id="path3"
         inkscape:label="whiteL" /><path
         style="fill:#000000;fill-opacity:1;stroke:none;stroke-width:0.196389px;stroke-linecap:butt;stroke-linejoin:miter;stroke-opacity:1"
         d="m 43.629415,63.57261 0.593539,1.095016 0.421223,0.537902 0.555247,0.691588 1.704035,1.767396 3.886729,2.286085 11.18153,-2.266874 2.833676,-1.267915 1.435984,-0.691588 0.382928,-0.576325 0.97647,-0.922118 0.229756,-0.499481 0.516955,-0.883698 -0.995615,-0.730011 -10.013596,-14.25442 -3.427215,0.134477 z"
         id="path5"
         inkscape:label="blackFaceBg"
         sodipodi:nodetypes="ccccccccccccccccc" /><rect
         style="fill:#d22422;fill-opacity:1;stroke:none;stroke-width:0.148452;stroke-opacity:1"
         id="rect4"
         width="18.574942"
         height="7.281074"
         x="47.048611"
         y="55.362888"
         inkscape:label="eyeBg" /><path
         style="fill:#d22422;fill-opacity:1;stroke:#000000;stroke-width:0.196389px;stroke-linecap:butt;stroke-linejoin:miter;stroke-opacity:1"
         d="m 62.645063,48.625178 c 0.15581,-0.325079 0.460097,-0.537197 0.740381,-0.747146 0.232654,-0.176831 0.442718,-0.38075 0.671344,-0.562541 0.254445,-0.210769 0.508514,-0.426165 0.717815,-0.683379 0.10626,-0.182842 0.226916,-0.363893 0.400305,-0.489858 0.157459,-0.135453 0.245855,-0.327355 0.341541,-0.506937 0.207397,-0.301938 0.498922,-0.537804 0.690111,-0.85214 0.192298,-0.249641 0.470854,-0.410457 0.697368,-0.625245 0.158832,-0.125552 0.372918,-0.106986 0.562221,-0.09372 0.325265,0.01083 0.665366,-0.05353 0.976245,0.07312 0.160646,0.06223 0.293701,0.193645 0.344722,0.35969 0.07901,0.237676 0.03052,0.490504 0.03395,0.735185 -0.0015,0.146103 -0.01424,0.299312 -0.0957,0.425293 -0.102601,0.176767 -0.25056,0.328337 -0.315888,0.525548 -0.08629,0.201058 -0.17507,0.401126 -0.271018,0.597791 -0.05705,0.238137 0.01955,0.494139 -0.07789,0.724789 -0.100278,0.164609 -0.05482,0.363449 -0.04164,0.543501 0.01127,0.127246 -0.0057,0.26122 -0.07936,0.368737 -0.121571,0.222884 -0.180961,0.479338 -0.170978,0.732823 -0.0206,0.113445 -0.06479,0.221946 -0.09274,0.333974 -0.181866,0.636413 -0.334522,1.281506 -0.545327,1.909397 -0.165054,0.332174 -0.386044,0.631928 -0.575249,0.949933 -0.245812,0.335246 -0.517635,0.651942 -0.740765,1.003383 -0.149602,0.180472 -0.395752,0.263475 -0.625571,0.235636 -0.277828,0.0053 -0.569262,-0.09166 -0.751674,-0.309248 -0.443551,-0.464639 -0.724343,-1.049245 -1.038158,-1.602245 -0.0979,-0.173193 -0.213907,-0.335085 -0.320327,-0.502821 -0.120212,-0.198141 -0.163347,-0.430279 -0.174559,-0.658801 -0.0082,-0.180686 -0.07553,-0.351094 -0.10839,-0.527717 -0.04446,-0.199962 -0.06598,-0.406825 -0.03923,-0.610831 0.0022,-0.212869 -0.121764,-0.403581 -0.123712,-0.616443 -0.0012,-0.0435 0.0022,-0.08733 0.01217,-0.129725 z"
         id="path4"
         inkscape:label="whiteR" /><path
         style="fill:#d22422;fill-opacity:1;stroke:none;stroke-width:0.196389px;stroke-linecap:butt;stroke-linejoin:miter;stroke-opacity:1"
         d="m 43.528576,76.825756 c 3.035521,-2.008959 5.40767,-5.08635 8.963252,-6.249671 1.083075,-0.07923 2.555675,-0.483006 2.339587,-1.875076 -0.09852,-1.89978 -0.0025,-3.802248 0.03933,-5.703752 0.848954,-1.009013 2.257977,-0.211772 3.356118,-0.385759 1.230525,0.360493 1.144369,1.83861 1.197466,2.861173 0.124776,1.68259 0.336972,3.356962 0.548857,5.030321 0.88024,0.7588 1.78607,1.797857 1.580357,3.048755 0.0189,1.483365 0.09622,3.009812 -0.38039,4.438154 -0.65034,0.987716 -1.992935,1.553559 -2.065229,2.873354 -0.361938,1.42726 -0.186962,2.92655 0.264343,4.310502 0.419155,1.13493 0.256048,2.389071 -0.562776,3.275089 -0.161048,0.944414 0.844806,2.498063 -0.542879,2.907465 -1.484627,0.258336 -1.253538,-1.909204 -2.388286,-2.036089 -1.126035,0.386284 -0.298342,2.073095 -1.464859,2.578503 -0.835854,0.721628 -2.201457,0.741976 -2.950287,-0.116904 -1.192278,-1.006618 -2.46337,-2.040586 -3.081788,-3.522851 -0.934129,-1.582182 -2.380696,-2.801889 -3.991948,-3.652416 -1.706006,-1.238433 -2.547637,-3.669357 -1.800415,-5.660137 0.396271,-0.653038 1.165409,-1.265982 0.939547,-2.120661 z"
         id="path2"
         inkscape:label="wihte" /><path
         style="fill:#d22422;fill-opacity:1;stroke-width:0.37112867;stroke-dasharray:none;stroke:#d22422;stroke-opacity:1"
         d="m 64.99447,106.29208 c -0.497082,0.47017 -0.516042,0.45581 -0.727084,-0.77061 -0.119655,-0.69536 -0.09745,-1.94594 0.05065,-2.80685 0.147607,-0.85803 0.570087,-2.22961 0.943901,-3.064602 0.373524,-0.834354 1.142875,-2.117353 1.717628,-2.864414 0.573707,-0.745714 1.644542,-1.779931 2.386383,-2.304837 1.223874,-0.865963 1.332215,-1.022211 1.186094,-1.739299 -0.08836,-0.433636 -0.179942,-0.965468 -0.203806,-1.18296 -0.02383,-0.217186 -0.194157,-0.548803 -0.378468,-0.7369 -0.184317,-0.188093 -0.335168,-0.511744 -0.335248,-0.719192 -8e-5,-0.207442 -0.133497,-0.374533 -0.296467,-0.371272 -0.162964,0.0033 -0.795572,0.398444 -1.404729,0.878487 -0.621345,0.489645 -2.477178,2.098642 -4.166552,3.622608 -1.709505,1.542117 -3.928819,3.686932 -5.067743,4.892715 -1.081897,1.145396 -2.877182,2.951166 -3.857446,3.878596 -1.232303,1.16591 -1.975187,1.69302 -2.259783,1.59275 -0.318288,-0.11214 -0.380334,-0.33346 -0.246188,-0.88289 0.09815,-0.40201 0.180073,-1.12972 0.181591,-1.61176 0.0026,-0.81411 0.06142,-0.87443 0.794473,-0.82028 0.436828,0.0323 0.835812,-0.082 0.890611,-0.25513 0.06344,-0.20043 -0.41412,-0.36329 -1.323298,-0.45102 -0.831679,-0.0803 -2.836898,0.0768 -4.821235,0.38013 -1.882617,0.28807 -4.323108,0.72058 -5.488847,0.97073 -1.144722,0.24563 -2.660494,0.55104 -3.336346,0.67147 -0.683337,0.12178 -1.24119,0.31143 -1.239941,0.42117 0.0012,0.10973 1.068124,0.31605 2.37318,0.4593 1.303541,0.14307 3.159967,0.22847 4.118894,0.18934 0.959825,-0.0388 2.325876,0.10159 3.036141,0.31247 0.839125,0.24914 1.266522,0.51663 1.220239,0.76431 -0.03916,0.20958 -0.189369,0.39638 -0.333933,0.41504 -0.144572,0.0186 -2.695907,-0.0408 -5.661287,-0.12911 -2.964024,-0.0883 -5.859799,-0.22149 -6.435328,-0.29812 -0.828627,-0.11034 -1.033283,-0.24385 -0.970562,-0.63344 0.0613,-0.38077 -0.04244,-0.45657 -0.454917,-0.33147 -0.506237,0.15353 -0.514941,0.12439 -0.154387,-0.55902 0.20972,-0.39752 0.640718,-1.08963 0.960287,-1.54204 0.335399,-0.47481 1.278007,-1.783197 2.170266,-3.009183 0.876565,-1.20441 1.910107,-2.495084 2.300344,-2.87553 0.388148,-0.37841 1.053665,-1.145754 1.475905,-1.701526 0.768826,-1.011944 0.769293,-1.011813 -0.487821,-1.618576 -0.691825,-0.333925 -1.89328,-0.777386 -2.673021,-0.986431 -0.78119,-0.209434 -2.259911,-0.348678 -3.29302,-0.309617 -1.137879,0.04302 -2.531449,0.306162 -3.543117,0.667764 -0.918534,0.328318 -2.358407,1.0853 -3.205195,1.683751 -0.84527,0.597378 -1.974518,1.601899 -2.507637,2.229831 -0.532758,0.627506 -1.336455,1.816868 -1.782904,2.638416 -0.447061,0.822685 -0.909138,1.499536 -1.026481,1.504514 -0.117356,0.005 -0.397313,0.0888 -0.622209,0.186307 -0.366942,0.15905 -0.370804,0.0671 -0.03863,-0.893899 0.203461,-0.58861 0.548581,-1.427605 0.765973,-1.862388 0.217184,-0.434379 0.949164,-1.442212 1.623784,-2.236829 0.674571,-0.79456 1.880999,-1.923661 2.678388,-2.505426 0.799069,-0.58299 2.055248,-1.34632 2.796132,-1.698305 0.741826,-0.352444 2.222008,-0.800402 3.299972,-0.99694 1.389695,-0.253374 2.429399,-0.288586 3.59083,-0.12289 0.900561,0.12847 2.01593,0.344141 2.484171,0.47956 0.509141,0.147243 0.850207,0.423674 0.852506,0.69088 0.0021,0.244911 0.443519,0.730196 0.981742,1.078953 0.538173,0.348724 1.077005,0.674379 1.196674,0.723336 0.119636,0.04894 0.560639,-0.256872 0.980192,-0.679309 0.419555,-0.42244 0.762897,-0.865231 0.76264,-0.984232 -2.57e-4,-0.119 -0.383703,-0.20556 -0.851731,-0.192032 -0.467708,0.01353 -1.287899,-0.08498 -1.820637,-0.218554 -0.573443,-0.14378 -1.194867,-0.55801 -1.521203,-1.014101 -0.303505,-0.424179 -0.479041,-0.77364 -0.390401,-0.776624 0.08868,-0.003 0.513355,0.168592 0.944311,0.381631 0.430073,0.212612 1.848544,0.498498 3.152086,0.636529 2.373509,0.251326 2.371767,0.254108 3.293577,2.484833 0.306374,0.741409 1.580996,3.840858 1.944916,4.727621 1.02439,2.496124 1.027175,2.494904 3.200514,2.616875 1.195228,0.06709 2.356397,0.187148 2.578384,0.26607 0.273111,0.09708 1.672941,-1.163326 4.365774,-3.880117 2.21463,-2.234331 5.129894,-4.951302 6.590529,-6.158719 1.430581,-1.182583 2.604048,-2.214262 2.601781,-2.294556 -0.0022,-0.08026 -0.0943,-0.284123 -0.204504,-0.452995 -0.148158,-0.227029 -1.245978,-0.0521 -4.189888,0.67746 -2.189727,0.542662 -4.189,0.994169 -4.45247,0.99985 -0.303941,0.0066 -0.479287,-0.185758 -0.479828,-0.526374 -5.29e-4,-0.332958 0.258853,-0.641049 0.683426,-0.811145 0.379884,-0.152186 2.077785,-0.653938 3.795169,-1.118347 1.713462,-0.463349 3.35926,-0.831233 3.651345,-0.819254 0.292086,0.01197 0.909604,-0.07108 1.372551,-0.184597 0.838378,-0.205513 0.844937,-0.19794 1.520321,1.579435 0.372783,0.98102 0.763942,2.080452 0.868011,2.440503 0.104389,0.361157 0.4304,1.126133 0.724964,1.700727 0.294466,0.5744 0.556507,1.068965 0.582165,1.099385 0.02566,0.03037 0.633874,-0.130327 1.352804,-0.35706 0.719062,-0.226784 2.317382,-0.4325 3.555677,-0.457498 1.237487,-0.02498 2.251999,0.05849 2.251638,0.185674 -3.61e-4,0.127193 -0.153022,0.351562 -0.339106,0.498554 -0.186098,0.147002 -1.250144,0.352933 -2.361703,0.457565 -1.112548,0.104746 -2.412583,0.336364 -2.893263,0.515167 -0.512762,0.190737 -0.870108,0.504666 -0.866063,0.760173 0.0038,0.239573 0.232489,1.082442 0.508835,1.873257 0.279331,0.799344 0.883738,2.367932 1.358666,3.522591 0.473318,1.150752 1.283359,2.748892 1.808622,3.570482 0.522785,0.8177 0.878152,1.60561 0.788544,1.75196 -0.0896,0.14633 -0.266829,0.2684 -0.393891,0.27126 -0.127071,0.003 -0.610628,-0.2963 -1.074302,-0.66501 -0.46421,-0.36912 -1.160862,-1.267 -1.549052,-1.99816 -0.391507,-0.73741 -1.050486,-2.14146 -1.478635,-3.151978 -0.425076,-1.003257 -0.772303,-1.913131 -0.773155,-2.020718 -8.51e-4,-0.107487 -0.212315,-0.665873 -0.469477,-1.240819 C 71.598536,95.172143 71.312,94.70298 71.21866,94.704957 c -0.09333,0.002 -0.757236,0.476982 -1.47333,1.056057 -0.718054,0.580671 -1.686813,1.596655 -2.160222,2.265017 -0.473854,0.668993 -1.079737,1.741433 -1.352832,2.393929 -0.273425,0.65327 -0.608864,1.97902 -0.747375,2.96062 -0.138133,0.97893 -0.187665,1.9244 -0.113841,2.10398 0.07354,0.17888 -0.09616,0.54227 -0.37659,0.80753 0,0 0,-1e-5 0,-1e-5 z M 38.697669,101.5522 c 0.831137,-0.22193 3.374307,-0.65671 5.680107,-0.96695 2.300194,-0.30949 4.22801,-0.601943 4.278007,-0.654542 0.05,-0.05259 -0.606028,-1.794793 -1.446201,-3.872586 -0.840173,-2.077784 -1.557044,-3.826617 -1.602124,-3.885193 -0.04508,-0.05862 -0.818322,0.622828 -1.716714,1.515694 -0.908577,0.90299 -2.763646,2.96788 -4.162521,4.637865 -1.389667,1.658991 -2.52508,3.156172 -2.527617,3.323312 -0.0034,0.22192 0.401194,0.19502 1.497063,-0.0976 0,0 0,1e-5 0,1e-5 z M 70.195492,84.554641 c -0.439085,0.145462 -0.522212,0.09341 -0.391173,-0.245517 0.09152,-0.236686 0.515843,-0.505614 0.943431,-0.597698 0.427499,-0.09212 0.842786,-0.27224 0.922385,-0.400311 0.07961,-0.128105 0.712134,-0.234486 1.40671,-0.236639 1.26395,-0.0039 1.262535,-0.0042 -0.53169,0.645773 -0.982842,0.356031 -2.046773,0.734048 -2.349663,0.834392 z M 74.7289,83.023662 c -0.139547,0.0027 -0.253625,-0.114076 -0.253549,-0.259414 7.6e-5,-0.145351 0.18925,-0.267838 0.420511,-0.272237 0.231276,-0.0044 0.345453,0.112314 0.253668,0.259403 -0.09179,0.147078 -0.28108,0.26959 -0.42063,0.272248 z"
         id="path40"
         inkscape:label="bike" /><path
         style="fill:#000000;fill-opacity:1;stroke:none;stroke-width:0;stroke-dasharray:none;stroke-opacity:1"
         d="m 57.481509,103.28101 c 0.09745,-0.10765 0.170957,-0.2644 0.06036,-0.59787 -0.10727,-0.32345 -0.249859,-0.72858 -0.315053,-0.89441 -0.06572,-0.16716 0.0967,-0.37361 0.360934,-0.4587 0.264843,-0.0853 1.025477,-0.24665 1.693788,-0.35897 0.942145,-0.15835 1.314078,-0.10788 1.659823,0.22325 0.244947,0.2346 0.524774,0.7226 0.621609,1.08366 0.09687,0.36117 0.05574,0.7823 -0.09162,0.93567 -0.183371,0.19086 -0.336211,0.085 -0.483668,-0.33637 -0.215036,-0.61453 -0.215231,-0.61665 -0.387486,0.0502 -0.17175,0.66496 -0.171523,0.66699 -0.466479,0.013 -0.286384,-0.63495 -0.294665,-0.6389 -0.301848,-0.0576 -0.004,0.32749 -0.129971,0.59898 -0.280202,0.60327 -0.15025,0.004 -0.344816,-0.16877 -0.432235,-0.38467 -0.08741,-0.21587 -0.26147,-0.38964 -0.386943,-0.38608 -0.125473,0.004 -0.15676,0.18316 -0.06935,0.39909 0.119489,0.29518 -0.03795,0.39819 -0.634351,0.41552 -0.685812,0.0199 -2.651861,2.73059 0.191697,2.64313 1.18947,-0.0366 1.684852,0.0672 2.024528,0.42217 0.247256,0.2584 0.454025,0.69866 0.459249,0.97778 0.0053,0.27904 -0.10073,0.69002 -0.235256,0.91232 -0.198704,0.32835 -0.248936,0.29704 -0.265869,-0.17436 -0.01141,-0.31842 -0.141463,-0.64888 -0.289366,-0.73418 -0.153595,-0.0886 -0.268333,0.16347 -0.266429,0.58828 0.0032,0.72428 -0.0025,0.73177 -0.300688,0.1576 -0.167379,-0.32229 -0.393561,-0.58327 -0.503178,-0.57979 -0.109622,0.003 -0.130549,0.24254 -0.04602,0.5312 0.08452,0.28863 0.02947,0.52884 -0.122797,0.5338 -0.152277,0.005 -0.336671,-0.25727 -0.40918,-0.58289 -0.131157,-0.58898 -0.131746,-0.59505 -0.15059,0.005 -0.01538,0.48949 -0.172711,0.6017 -0.877295,0.62392 -0.500199,0.0158 -1.432252,-1.62115 -1.39865,-2.19207 0.124839,-2.12111 0.201475,-1.7889 1.642565,-3.3809 z m -3.483611,-3.355708 c -0.387817,0.007 -0.914157,-0.103814 -1.169755,-0.245349 -0.25564,-0.141569 -0.466416,-0.429362 -0.468498,-0.639628 -0.0021,-0.209965 -0.612955,-1.03505 -1.354727,-1.832992 -0.743073,-0.79935 -1.577716,-1.980579 -1.859927,-2.630234 -0.28177,-0.648643 -0.512596,-1.475726 -0.513894,-1.839143 -0.0013,-0.362989 -0.115714,-0.870178 -0.254208,-1.126704 -0.13851,-0.256545 -0.760727,-0.640485 -1.38174,-0.852642 -0.621887,-0.212466 -1.819718,-0.445631 -2.66388,-0.518216 -0.842547,-0.07243 -2.140875,-0.29527 -2.878916,-0.4941 -0.884979,-0.238421 -1.662131,-0.691021 -2.27288,-1.32411 -0.800988,-0.830273 -1.133168,-0.977033 -2.420923,-1.065428 -0.819862,-0.05632 -2.03369,-0.349386 -2.69278,-0.650184 -0.660056,-0.301238 -1.658636,-0.998962 -2.217083,-1.548861 -0.559027,-0.550469 -1.324031,-1.662734 -1.700056,-2.471439 -0.615607,-1.323957 -0.682721,-1.774273 -0.687296,-4.538813 -0.0049,-2.955202 0.02661,-3.148673 0.863978,-4.98439 0.479209,-1.050547 1.419064,-2.510988 2.09072,-3.244408 0.672598,-0.734448 1.710731,-1.614524 2.313878,-1.960866 0.686323,-0.394102 1.450171,-0.610308 2.0521,-0.581252 0.821939,0.03968 0.970496,0.150821 1.040304,0.76938 0.06946,0.615469 -0.126585,0.865429 -1.313984,1.700441 -0.768414,0.54037 -1.821996,1.52124 -2.348043,2.183621 -0.524988,0.661046 -1.197614,1.8881 -1.495408,2.725217 -0.442135,1.242869 -0.521011,1.95135 -0.43313,3.856743 0.09514,2.06295 0.195333,2.456815 0.876481,3.424558 0.423183,0.601236 1.233601,1.408812 1.800587,1.794226 0.619711,0.421248 1.437709,0.711726 2.05067,0.727958 1.019835,0.02697 1.020167,0.02818 0.959583,-1.437396 -0.03329,-0.805186 0.06874,-2.304894 0.226521,-3.330362 0.157666,-1.024744 0.649367,-2.777783 1.092252,-3.891489 0.443351,-1.114883 1.481388,-2.968668 2.310213,-4.120837 0.830406,-1.154369 2.131904,-2.605155 2.903076,-3.235148 0.770384,-0.629347 1.749965,-1.331235 2.186193,-1.568034 0.435221,-0.236254 1.414001,-0.575848 2.183154,-0.756398 0.768915,-0.180493 1.796378,-0.332774 2.29007,-0.340397 0.491803,-0.0076 0.968402,-0.135624 1.058488,-0.284801 0.100506,-0.166432 -0.328283,-0.264678 -1.110497,-0.252856 -0.703283,0.01063 -2.051898,0.253401 -3.007131,0.542808 -1.218496,0.369167 -1.917276,0.457338 -2.359459,0.291545 -0.627484,-0.235272 -0.628586,-0.235569 0.02858,-0.514922 0.363734,-0.154619 1.983646,-0.375778 3.616029,-0.487921 1.629435,-0.111946 2.966666,-0.301751 2.967101,-0.42781 4.36e-4,-0.126055 -0.979351,-0.213917 -2.174986,-0.192294 -1.201988,0.0217 -2.921231,0.216277 -3.847947,0.434939 -1.67415,0.395021 -1.673153,0.399339 -2.475851,-0.762691 -0.441086,-0.63854 -0.870934,-1.160104 -0.955887,-1.158003 -0.08495,0.0021 -0.204856,-0.330799 -0.266176,-0.740309 -0.06158,-0.411262 -0.109388,-1.599415 -0.104535,-2.651774 0.007,-1.532954 0.142695,-2.158589 0.68187,-3.157196 0.674166,-1.248627 0.672811,-1.24104 0.113848,-2.745823 -0.309518,-0.83325 -0.678671,-2.357361 -0.825638,-3.421274 -0.147783,-1.06983 -0.173831,-3.107963 -0.05048,-4.599665 0.122235,-1.478202 0.303808,-2.956358 0.456082,-3.221082 0.245107,-0.426115 0.405964,-0.374355 1.541036,0.473184 0.680642,0.508224 2.420254,2.033954 3.738226,3.2529 1.588587,1.469231 2.570158,2.175019 2.833712,2.061972 0.223014,-0.09566 1.119634,-0.3339 2.001431,-0.529515 0.882592,-0.195789 2.192936,-0.347718 2.923708,-0.340672 0.728401,0.007 2.050968,0.179062 2.941866,0.381394 1.621656,0.368292 1.616285,0.365194 3.079255,-0.824289 0.834616,-0.678594 2.684033,-1.961451 4.224414,-3.059922 2.747767,-1.95948 2.747656,-1.938981 2.919224,-0.910171 0.0936,0.561281 0.02331,2.157307 -0.11634,3.614345 -0.138795,1.448177 -0.454338,3.463512 -0.696623,4.397979 -0.245303,0.946107 -0.580494,2.098967 -0.739429,2.532551 -0.254983,0.695613 -0.177387,1.034977 0.637275,2.618915 0.727132,1.413754 0.933563,2.117405 0.923097,3.190741 -0.0074,0.756084 -0.178321,1.91769 -0.379649,2.576079 -0.312385,1.021575 -0.457093,1.186982 -0.980958,1.11379 -0.337376,-0.04714 -1.799012,0.06777 -3.241514,0.255483 -1.443453,0.187842 -2.698664,0.466844 -2.792561,0.619339 -0.114615,0.186146 0.367709,0.215817 1.466402,0.09122 0.295233,-0.03348 2.950499,-0.333414 3.245731,-0.366894 1.416892,-0.159846 1.588399,-0.129741 1.439984,0.253804 -0.140192,0.362297 -0.622526,0.440653 -2.876712,0.463275 -1.488474,0.01491 -2.881912,0.144708 -3.102232,0.289307 -0.273406,0.179438 0.420531,0.256503 2.196094,0.243566 1.429301,-0.01044 2.601353,0.07644 2.601113,0.193533 -2.39e-4,0.117078 -0.121665,0.334571 -0.269795,0.483329 -0.18073,0.181496 -0.92661,0.143883 -2.263471,-0.116119 -1.426571,-0.277449 -2.072295,-0.305532 -2.278604,-0.0971 -0.206292,0.208418 0.167319,0.338671 1.317458,0.458025 0.883531,0.09169 1.672369,0.270449 1.751125,0.397235 0.07883,0.1269 -0.540781,0.664071 -1.375725,1.194762 -0.834596,0.530469 -1.619972,1.001271 -1.744939,1.044438 -0.125358,0.0433 -0.05157,0.57925 0.164375,1.190331 0.21548,0.609751 0.531252,2.105314 0.700415,3.315731 0.169527,1.213026 0.428671,2.673502 0.576147,3.249926 0.147432,0.576255 0.61475,1.542685 1.039365,2.148796 0.425074,0.606757 1.508051,1.57662 2.41116,2.158132 0.902318,0.580993 1.933764,1.050269 2.291827,1.043925 0.357732,-0.0063 1.123855,-0.25811 1.702936,-0.559417 0.579039,-0.301286 1.407652,-0.554138 1.84131,-0.561947 0.433346,-0.0078 1.03383,0.189549 1.333695,0.438427 0.299905,0.248913 0.624518,0.717946 0.721121,1.042216 0.138275,0.46416 0.08582,0.557586 -0.246326,0.438858 -0.267283,-0.09553 -0.421844,-0.0056 -0.421952,0.245613 -9.3e-5,0.218038 0.187985,0.463703 0.418049,0.545911 0.23004,0.08221 0.685089,-0.02001 1.011362,-0.22661 0.32621,-0.206828 1.162102,-0.465495 1.858612,-0.575128 1.266429,-0.199332 1.267308,-0.199712 1.136951,1.335421 -0.07216,0.849727 -0.194075,2.141371 -0.273065,2.894903 -0.142575,1.360123 -0.146345,1.360306 -2.758717,1.860248 -1.439533,0.275492 -2.865555,0.562518 -3.184455,0.640501 -0.524555,0.128264 -0.58975,0.0048 -0.737408,-1.39568 -0.08908,-0.845159 -0.06705,-1.952159 0.049,-2.459429 0.19015,-0.83114 0.355771,-0.969971 1.680869,-1.402806 0.809127,-0.264295 1.217845,-0.483051 0.906959,-0.486049 -0.315569,-0.003 -0.684239,-0.265758 -0.835231,-0.595057 -0.270389,-0.589705 -0.27037,-0.589741 -0.46301,0.0086 -0.105946,0.329066 -0.305554,0.600396 -0.443495,0.60296 -0.137957,0.0026 -0.250743,-0.173757 -0.250682,-0.391867 6.1e-5,-0.218089 -0.107966,-0.394564 -0.240016,-0.392142 -0.132059,0.0024 -0.309709,0.184141 -0.394832,0.403833 -0.08512,0.21969 -0.394178,0.403851 -0.686565,0.409227 -0.292416,0.0054 -0.857394,0.313234 -1.25531,0.68421 -0.397915,0.370977 -0.584984,0.671997 -0.416031,0.668847 0.168956,-0.0032 0.307216,0.169363 0.307194,0.383323 -2.3e-5,0.216219 -0.387105,0.496765 -0.87098,0.631676 -0.697997,0.194607 -0.889095,0.160612 -0.96591,-0.172502 -0.05267,-0.228394 -0.228829,-0.574544 -0.3914,-0.769149 -0.224231,-0.268415 -0.175176,-0.44333 0.203527,-0.724174 0.39018,-0.289358 0.417319,-0.394329 0.123641,-0.480781 -0.208035,-0.06125 -0.96951,-0.312836 -1.697292,-0.561229 -0.72823,-0.248547 -2.166867,-0.99932 -3.202594,-1.67233 -1.036631,-0.673597 -2.104897,-1.399941 -2.384772,-1.619543 -0.495345,-0.38868 -0.49425,-0.431004 0.0652,-2.148053 0.319645,-0.981044 0.570538,-2.432876 0.570219,-3.301286 -4.27e-4,-1.163914 -0.121687,-1.658722 -0.486716,-1.984666 -0.267364,-0.238736 -0.835444,-0.428882 -1.261928,-0.422223 -0.426925,0.0067 -1.15842,0.252659 -1.6266,0.547204 -0.46826,0.294594 -1.07887,0.994191 -1.358032,1.555362 -0.279132,0.561109 -0.640561,1.65825 -0.803606,2.438643 -0.163035,0.780335 -0.295721,2.264849 -0.294982,3.298428 7.4e-4,1.034194 0.203935,2.716169 0.451785,3.738994 0.450619,1.859608 0.450832,1.857711 1.320171,0.80753 0.477521,-0.57686 1.276387,-1.826702 1.772022,-2.772513 0.902497,-1.722213 0.902919,-1.720992 1.299244,-0.95423 0.218033,0.421815 0.471814,1.124238 0.563678,1.560331 0.09191,0.436332 0.05597,1.466384 -0.0797,2.288953 -0.135539,0.821798 -0.382767,2.005191 -0.548575,2.626193 -0.301797,1.130347 -0.301663,1.130981 -0.957513,0.52998 -0.41305,-0.378501 -1.113076,-0.644404 -1.89113,-0.718067 -1.044192,-0.09887 -1.312245,-0.248499 -1.737821,-0.970969 -0.277251,-0.470671 -0.797957,-1.892737 -1.15832,-3.165213 -0.484341,-1.710263 -0.661073,-3.006052 -0.679638,-4.978421 -0.01381,-1.466692 0.0609,-2.940643 0.165795,-3.273202 0.10967,-0.347718 0.08083,-0.602704 -0.06796,-0.599984 -0.1423,0.0026 -0.346297,0.517567 -0.453308,1.144114 -0.107003,0.62652 -0.186595,2.053262 -0.176845,3.169559 0.01133,1.297126 0.268687,2.974789 0.713672,4.646963 0.383223,1.440088 0.991189,3.055965 1.352413,3.59654 0.596084,0.89203 0.763837,0.978572 1.843486,0.954717 0.834913,-0.01845 1.346439,0.128409 1.719765,0.493076 0.2922,0.28542 0.531701,0.681971 0.532048,0.881197 3.48e-4,0.19939 0.263088,0.98481 0.584471,1.74524 0.501821,1.187359 0.76377,1.460807 1.855503,1.939169 1.272087,0.557374 1.271721,0.556517 0.510348,1.302411 -0.643461,0.630388 -0.898272,0.719695 -1.648861,0.576314 -0.488554,-0.09333 -1.215411,-0.328565 -1.615969,-0.523025 -0.400696,-0.194527 -0.974003,-0.826034 -1.274478,-1.404288 -0.300379,-0.57806 -0.475915,-1.166651 -0.390539,-1.307619 0.08537,-0.140948 -0.08992,-0.51329 -0.389382,-0.827542 -0.544268,-0.571164 -0.544342,-0.571722 -0.542895,0.0097 0.001,0.408287 -0.15934,0.584414 -0.540226,0.593517 -0.29789,0.0071 -0.830945,-0.292574 -1.184385,-0.666213 -0.355079,-0.375371 -1.405464,-1.933931 -2.337928,-3.473791 -0.935387,-1.544677 -2.099874,-3.61514 -2.606925,-4.631292 -0.50422,-1.01048 -1.125349,-2.398185 -1.384309,-3.091626 -0.258195,-0.691381 -0.560762,-1.255329 -0.672469,-1.25254 -0.111706,0.0028 -0.02813,0.632361 0.185775,1.398236 0.214253,0.767122 0.453857,1.599735 0.53395,1.856235 0.133778,0.428431 0.05582,0.425344 -1.002359,-0.03507 -0.631017,-0.274567 -1.418348,-0.493865 -1.751267,-0.487866 -0.332738,0.0062 -0.541308,0.113987 -0.463683,0.239663 0.07763,0.125718 0.467771,0.28609 0.867303,0.356655 0.399504,0.07057 1.198851,0.464212 1.776995,0.874908 0.734367,0.521673 1.463675,1.493903 2.421933,3.222395 0.752673,1.357659 1.638341,3.188072 1.960114,4.053463 0.323194,0.869205 0.667767,1.671439 0.765462,1.784158 0.09753,0.11253 0.466658,0.08639 0.820487,-0.0578 0.481178,-0.19617 0.77998,-0.154551 1.185237,0.164367 0.507837,0.399647 0.520556,0.519256 0.21387,1.889656 -0.180945,0.808538 -0.402002,2.241338 -0.493135,3.200517 -0.09321,0.980973 -0.0419,2.163032 0.116927,2.716393 0.27376,0.953813 0.263354,0.979169 -0.423524,0.990764 l -3e-6,-4.71e-4 z m 3.544268,-8.834682 c 0.113252,-0.0026 0.470575,-0.196618 0.79411,-0.430906 0.323537,-0.234279 0.588052,-0.624553 0.587542,-0.867354 -7.11e-4,-0.338259 -0.102679,-0.293902 -0.436551,0.191526 -0.435316,0.632929 -0.435348,0.63359 -0.774159,-0.122423 -0.338486,-0.755285 -0.338765,-0.756584 -0.357968,0.239079 -0.01055,0.547248 0.07372,0.992703 0.187026,0.990078 z m 14.797235,-2.522601 c 0.332591,-0.09403 0.816652,-0.176816 1.075575,-0.183878 0.407939,-0.01101 0.471226,-0.288491 0.472957,-2.080716 0.0011,-1.137625 -0.06581,-2.133981 -0.148397,-2.213485 -0.08259,-0.07951 -0.399156,-0.07601 -0.703247,0.0083 -0.304183,0.08385 -0.720977,0.550512 -0.926493,1.037167 -0.205512,0.486645 -0.37387,1.496877 -0.374258,2.244686 -6.64e-4,1.281091 0.03424,1.349513 0.603863,1.188402 v -4.89e-4 z m 2.42184,-0.48191 c 0.185203,-0.0056 0.478741,-0.101896 0.652318,-0.213258 0.189087,-0.121381 0.352832,-1.127396 0.407989,-2.512275 0.0506,-1.270686 0.06686,-2.310181 0.03672,-2.309258 -0.03013,9.24e-4 -0.364311,0.14564 -0.742291,0.32152 -0.656519,0.305482 -0.68676,0.418493 -0.688951,2.522449 -0.0017,1.587672 0.09137,2.19852 0.334208,2.190822 h 4e-6 z M 76.71706,87.52362 c 0.326002,-0.0065 0.406019,-0.418438 0.408624,-2.11972 0.0026,-1.701721 -0.07632,-2.111139 -0.402644,-2.104724 -0.326603,0.0064 -0.405264,0.41895 -0.407584,2.120759 -0.0023,1.701366 0.07533,2.110182 0.401604,2.103685 z m 0.946276,-0.546688 c 0.14449,-0.220616 0.266263,-1.202864 0.270063,-2.183261 0.0039,-1.014968 -0.110007,-1.780464 -0.264019,-1.777389 -0.1588,0.0032 -0.269479,0.905262 -0.269025,2.184126 5.37e-4,1.50354 0.08149,2.053632 0.262981,1.776524 z M 49.396176,68.574024 c 0.217107,-0.0109 0.09891,-0.148149 -0.262884,-0.305198 -0.36189,-0.157093 -1.041773,-0.508665 -1.511357,-0.78162 -0.514569,-0.299105 -0.853475,-0.375114 -0.853701,-0.191323 -2.05e-4,0.167607 0.501666,0.527883 1.115881,0.801045 0.614044,0.273086 1.294982,0.487952 1.512061,0.477096 z m 6.219527,-1.415506 c 0.177861,-0.0023 0.597453,-0.231707 0.932273,-0.509453 0.594276,-0.492978 0.630055,-0.492104 1.478394,0.0041 0.478291,0.279768 1.000918,0.425637 1.160807,0.324473 0.169852,-0.107468 -0.07442,-0.363657 -0.587128,-0.61662 -0.510221,-0.251734 -0.910222,-0.671939 -0.956146,-1.004116 -0.05045,-0.364918 0.177127,-0.777006 0.630704,-1.140567 0.447503,-0.358692 0.651926,-0.723052 0.552716,-0.986693 -0.123995,-0.329503 -0.504264,-0.399089 -1.797177,-0.32469 -0.901379,0.05187 -1.676779,0.216537 -1.724351,0.364878 -0.04757,0.148342 0.328027,0.553234 0.835254,0.899306 0.507169,0.346032 0.922004,0.84093 0.92119,1.099692 -8.15e-4,0.258884 -0.309793,0.67803 -0.68632,0.931723 -0.376522,0.253687 -0.853379,0.397954 -1.059653,0.320241 -0.206351,-0.07774 -0.37536,-0.04454 -0.37563,0.07381 -2.7e-4,0.118348 0.07869,0.294564 0.175508,0.391633 0.0968,0.09706 0.321579,0.174558 0.499559,0.172273 v -4e-6 z M 51.33171,64.219789 c 0.407444,0.01608 0.675652,-0.07821 0.595854,-0.209855 -0.07973,-0.131528 -1.135659,-0.377167 -2.343759,-0.543067 -1.212771,-0.166541 -2.865427,-0.230468 -3.692495,-0.143229 -0.823521,0.08686 -1.639332,0.320213 -1.815405,0.517223 -0.261362,0.292441 0.02329,0.321937 1.517514,0.178396 1.015083,-0.09751 2.544932,-0.09803 3.417822,-0.0025 0.86528,0.09473 1.915973,0.187041 2.320469,0.203005 v 4e-6 z m 0.589003,-2.262313 c 0.435567,-0.0854 1.089673,-0.459337 1.452241,-0.830135 0.660219,-0.675206 0.659814,-0.673313 -0.158152,-1.510614 -0.449753,-0.460384 -0.949254,-0.753412 -1.110929,-0.650206 -0.161684,0.103206 -0.298744,0.515479 -0.304335,0.915929 -0.0056,0.400296 -0.111608,0.891267 -0.235709,1.090894 -0.169587,0.272799 -0.263052,0.213956 -0.375571,-0.238743 -0.08238,-0.331458 -0.07948,-0.948213 0.0068,-1.371809 0.10603,-0.521 0.04047,-0.806175 -0.203814,-0.882599 -0.198664,-0.06215 -0.74429,-0.177386 -1.213129,-0.255957 -0.753775,-0.126321 -0.873031,-0.06013 -1.032498,0.57238 -0.116309,0.461331 -0.01745,1.028524 0.278957,1.598972 0.252753,0.486378 0.829055,1.070753 1.281455,1.30042 0.48617,0.246813 1.145886,0.353402 1.614757,0.261468 h -4.9e-5 z m 9.876269,0.05293 c 0.04126,2.84e-4 0.475311,-0.16993 0.964945,-0.377902 0.48938,-0.207865 1.087798,-0.659122 1.328801,-1.002173 0.241011,-0.343061 0.441927,-1.065371 0.446637,-1.604519 0.0048,-0.546473 -0.137613,-1.030297 -0.322322,-1.092451 -0.182325,-0.06135 -0.691531,-0.04141 -1.131231,0.04451 -0.781129,0.152629 -0.799077,0.187216 -0.721769,1.558658 0.05019,0.890392 -0.0254,1.401592 -0.210119,1.402593 -0.159728,8.66e-4 -0.294348,-0.209137 -0.299045,-0.466821 -0.0047,-0.257265 -0.15883,-0.829618 -0.341761,-1.270826 -0.332524,-0.802006 -0.332376,-0.804481 -1.211131,0.07842 -0.761959,0.765549 -0.830335,0.941254 -0.522038,1.32032 0.195904,0.240873 0.712242,0.65596 1.149466,0.923723 0.436769,0.267486 0.828308,0.48619 0.869567,0.486473 z M 45.538688,52.57835 c 0.101804,-0.05393 0.644132,-0.333176 1.237716,-0.635261 0.586439,-0.298449 1.106753,-0.565262 1.155312,-0.59465 0.04856,-0.02939 -0.113677,-0.402677 -0.359649,-0.830453 -0.235235,-0.409101 -1.14504,-1.814803 -1.964571,-3.050659 -0.83124,-1.253513 -1.598641,-2.286029 -1.714064,-2.285468 -0.115504,5.62e-4 -0.234138,0.602679 -0.260147,1.33617 -0.02624,0.740089 0.111573,2.053809 0.309213,2.94507 0.196948,0.888135 0.597796,1.966222 0.891486,2.407726 0.292516,0.439739 0.609978,0.7577 0.704704,0.707525 z m 19.831235,-0.475855 c 0.199437,8.99e-4 0.66341,-0.629594 1.033716,-1.399759 0.367421,-0.764164 0.836234,-2.279062 1.036781,-3.339094 0.2015,-1.065069 0.332608,-2.080789 0.283918,-2.251375 -0.04901,-0.171676 -0.462571,0.186847 -0.917072,0.799503 -0.454303,0.612388 -1.425265,1.919359 -2.15439,2.906319 -1.20226,1.627406 -1.270969,1.805526 -0.780517,1.8872 0.307677,0.05123 0.461195,0.214422 0.356229,0.37864 -0.101539,0.158858 0.03195,0.452901 0.296846,0.653157 0.26494,0.200289 0.644925,0.36451 0.844489,0.365409 z m -7.12503,-1.166599 c 0.05219,-0.352769 -0.04585,-1.119638 -0.216224,-1.700674 -0.170586,-0.581751 -0.453717,-1.110019 -0.630747,-1.172021 -0.235532,-0.08249 -0.227466,0.145353 0.03765,0.854088 0.198356,0.530249 0.354279,1.254889 0.344647,1.606224 -0.0097,0.352737 0.06993,0.734204 0.176442,0.848375 0.106496,0.114154 0.235887,-0.08222 0.288224,-0.435992 h 5e-6 z m -2.860012,0.03684 c 0.145559,5.58e-4 0.268009,-0.127311 0.272231,-0.284235 0.0042,-0.156564 -0.15384,-0.625701 -0.35007,-1.041893 -0.196042,-0.415793 -0.54086,-0.921493 -0.765185,-1.120699 -0.224849,-0.199671 -0.482588,-0.289968 -0.572963,-0.200329 -0.09037,0.08964 0.135348,0.548579 0.502932,1.018472 0.367381,0.469635 0.664494,1.028025 0.658724,1.240561 -0.0058,0.212968 0.108772,0.387566 0.254331,0.388123 z m 15.946982,39.560272 c -0.07379,0.0015 -0.134155,-0.05665 -0.134158,-0.129247 -3e-6,-0.07261 0.06036,-0.133156 0.134158,-0.134634 0.07379,-0.0015 0.134172,0.05666 0.134169,0.129253 -3e-6,0.0726 -0.06038,0.133146 -0.134169,0.134628 z"
         id="path39"
         sodipodi:nodetypes="ssssssssssssssssssssssssssssssssscssssssssssssssssssssssssssssssssssssssssssssssssssssssssssssssssssssssssssssssssssssssssssscsssssssssssssssssssssssssssssssssssssssssssssssssssssssssssssssssssssssssscsssssscssssccsssssssccsscsscsscssssssssssssssssssssssssssssssssssssssssssssssssscsssssscsssssccssssssssssssssssssssssssssssssssssssssssssssssssssssssscsscsssscscscsc" /><path
         d="m 77.141953,116.41969 c -0.803571,0.01 -1.920885,-0.0727 -2.478263,-0.18314 -0.558182,-0.11062 -1.690011,-0.48742 -2.513925,-0.83763 -0.825954,-0.35109 -2.207326,-1.27643 -3.073707,-2.06274 -0.910587,-0.82644 -1.876184,-2.02741 -2.293899,-2.85291 -0.399751,-0.78999 -0.884034,-1.97787 -1.097175,-2.66553 -0.44787,-1.44498 -0.32309,-2.44055 -0.282728,-3.87909 0.0311,-1.10854 0.347769,-2.53635 0.645195,-3.24376 0.293341,-0.697688 1.001988,-1.895595 1.582998,-2.674455 0.580223,-0.77781 1.560725,-1.80592 2.185264,-2.29218 0.622525,-0.4847 1.222856,-0.88288 1.332599,-0.88521 0.109746,-0.002 0.241074,0.2024 0.291902,0.4549 0.05624,0.27936 -0.467853,1.03254 -1.333483,1.92363 -0.785106,0.80819 -1.723991,2.06995 -2.095673,2.814385 -0.372133,0.74534 -0.820512,1.93244 -1.002466,2.65342 -0.181103,0.71761 -0.264396,1.40106 -0.187227,1.51946 0.07707,0.11825 0.244243,0.2122 0.371474,0.20882 0.127229,-0.003 0.418124,-0.69231 0.649677,-1.53088 0.232571,-0.84225 0.7164,-2.07785 1.080754,-2.7618 0.363463,-0.682275 1.181642,-1.756605 1.824871,-2.395425 0.64143,-0.63703 1.240207,-1.08868 1.328431,-1.00414 0.08824,0.0846 -0.389749,0.66529 -1.059818,1.29101 -0.692439,0.64662 -1.55302,1.84226 -1.992117,2.768435 -0.426392,0.89938 -0.839402,2.05582 -0.923957,2.58116 -0.153037,0.95083 -0.151502,0.94963 2.068577,1.06352 1.219162,0.0626 2.661489,0.1047 3.192115,0.0927 0.778228,-0.0178 1.001313,-0.13883 1.131702,-0.61564 0.162592,-0.59458 0.162987,-0.5936 0.699392,0.0128 0.295101,0.3336 0.539515,0.82539 0.542993,1.09238 0.0035,0.2672 0.246101,0.60493 0.538935,0.7507 0.292763,0.14574 0.819169,0.18754 1.169817,0.093 0.350458,-0.0945 0.773628,-0.47474 0.940277,-0.84489 0.244317,-0.54267 0.221676,-0.79214 -0.118737,-1.28681 -0.232272,-0.33753 -0.645676,-0.60899 -0.918779,-0.603 -0.27309,0.006 -0.631978,-0.14442 -0.797538,-0.33434 -0.165563,-0.18992 -0.22233,-0.42477 -0.126113,-0.52185 0.09622,-0.097 0.525661,-0.18418 0.954689,-0.19345 0.504788,-0.0109 1.058218,0.24787 1.568498,0.73288 0.605114,0.57515 0.789764,0.98963 0.796637,1.78139 0.0056,0.64252 -0.193787,1.29218 -0.528376,1.72251 -0.313811,0.4036 -0.931841,0.77288 -1.485907,0.8879 -0.64657,0.13423 -1.243641,0.0674 -1.874398,-0.21029 -0.590814,-0.26015 -1.072096,-0.73463 -1.329357,-1.31232 -0.402465,-0.90375 -0.403206,-0.90747 -3.502229,-0.82905 -3.093759,0.0783 -3.096481,0.0819 -2.921278,1.4746 0.09682,0.76967 0.462698,1.95647 0.81648,2.6499 0.353742,0.69335 1.284017,1.85196 2.075521,2.58482 0.967332,0.89565 1.928769,1.49159 2.945919,1.83175 0.946596,0.31655 2.121791,0.48526 3.153258,0.45437 0.904018,-0.0268 1.816265,-0.16159 2.025346,-0.29971 0.330257,-0.21819 0.28545,-0.56437 -0.285807,-2.63099 -0.36222,-1.3104 -0.608315,-2.42925 -0.555794,-2.48293 0.05252,-0.0537 0.371152,0.82242 0.714188,1.94441 0.34217,1.11916 0.635123,2.23168 0.642462,2.46172 0.0074,0.23314 0.222572,0.41558 0.477576,0.40571 0.254494,-0.0102 1.095241,-0.47364 1.871181,-1.02879 0.771631,-0.55209 1.861649,-1.66092 2.408079,-2.45045 0.596664,-0.8621 1.169466,-2.11984 1.423714,-3.13115 0.297272,-1.18252 0.372406,-2.15912 0.245001,-3.2507 -0.104247,-0.89314 -0.507855,-2.18116 -0.945748,-3.01241 -0.420582,-0.798405 -1.290043,-1.938385 -1.932435,-2.532785 -0.642337,-0.59433 -1.878393,-1.3826 -2.74604,-1.75143 -1.411475,-0.59999 -1.808778,-0.65275 -3.771399,-0.49751 -1.206115,0.0954 -2.400906,0.26568 -2.659276,0.37832 -0.269281,0.1174 -0.469411,0.0906 -0.469697,-0.063 -2.74e-4,-0.14724 0.814056,-0.41815 1.811835,-0.60176 1.258836,-0.23164 2.24355,-0.26191 3.215057,-0.0993 0.769752,0.12882 1.833209,0.40198 2.362029,0.60683 0.528776,0.20483 1.616801,0.96412 2.417212,1.68693 0.857797,0.77464 1.750736,1.91972 2.174996,2.787955 0.479659,0.98164 0.766237,2.09134 0.862342,3.32361 0.10308,1.32162 0.01538,2.29435 -0.305116,3.41039 -0.245288,0.85422 -0.805619,2.12836 -1.235658,2.81161 -0.431559,0.68566 -1.157511,1.57155 -1.606128,1.95859 -0.449018,0.38739 -1.530794,1.05829 -2.389297,1.48392 -1.303251,0.64611 -1.908052,0.78627 -3.6059,0.8333 -1.442491,0.04 -2.494068,-0.0932 -3.587342,-0.45833 -1.047925,-0.34999 -1.998169,-0.93224 -2.943422,-1.80913 -0.769449,-0.7138 -1.675352,-1.83022 -2.021397,-2.49083 -0.346674,-0.66181 -0.772087,-1.91363 -0.949999,-2.79957 -0.228381,-1.13725 -0.436627,-1.60075 -0.723571,-1.59301 -0.332632,0.009 -0.36955,0.24818 -0.198408,1.34419 0.115222,0.73789 0.467897,1.96598 0.790088,2.74945 0.365718,0.88933 1.147013,1.98059 2.099477,2.93086 1.011966,1.00964 2.111348,1.77577 3.295396,2.30315 1.605844,0.71524 2.006027,0.78176 4.177572,0.72343 2.183648,-0.059 2.558033,-0.1449 4.143562,-0.9517 0.954513,-0.48567 2.25567,-1.40766 2.873878,-2.03812 0.616425,-0.62862 1.49866,-1.85122 1.945349,-2.69664 0.446468,-0.845 0.951616,-2.27952 1.112536,-3.16645 0.205598,-1.13318 0.215268,-2.1179 0.02847,-3.27121 -0.146828,-0.9064 -0.66242,-2.40536 -1.145851,-3.326375 -0.623036,-1.18699 -1.360819,-2.06486 -2.52909,-3.00768 -0.920407,-0.74279 -2.326299,-1.56441 -3.179617,-1.85861 -0.967643,-0.33361 -2.157246,-0.51463 -3.237042,-0.4926 -0.939392,0.0192 -2.193793,0.21357 -2.790081,0.43221 -0.596097,0.21857 -1.154457,0.32905 -1.241701,0.24534 -0.08725,-0.0837 -0.158969,-0.41713 -0.159274,-0.74108 -4.01e-4,-0.42683 0.239489,-0.6772 0.872251,-0.90911 0.480571,-0.17612 1.611309,-0.40397 2.516061,-0.50673 1.290766,-0.14661 2.044491,-0.0663 3.505967,0.37301 1.023613,0.30765 2.355537,0.82722 2.957243,1.15408 0.601963,0.32698 1.71642,1.19235 2.476153,1.92305 0.760126,0.73108 1.745661,2.04908 2.191529,2.93001 0.445441,0.88005 0.951555,2.456925 1.125481,3.500005 0.249694,1.4975 0.244259,2.28442 -0.01828,3.73128 -0.181858,1.00223 -0.684551,2.53768 -1.10652,3.38545 -0.422336,0.8485 -1.2844,2.12844 -1.897479,2.81912 -0.615221,0.69309 -1.753734,1.65751 -2.513025,2.12884 -0.76148,0.4727 -2.092829,1.06251 -2.944491,1.30404 -0.853564,0.24207 -2.215853,0.44982 -3.017953,0.45931 l -1.7e-5,6e-5 z m -41.922659,0.0192 c -1.029559,0.0282 -2.352654,-0.0861 -2.943562,-0.25456 -0.592153,-0.16879 -1.733335,-0.62107 -2.542436,-1.00817 -0.810493,-0.38775 -2.084289,-1.31059 -2.836255,-2.05502 -0.754346,-0.74679 -1.691454,-1.94335 -2.096204,-2.67329 -0.405872,-0.73198 -0.916917,-2.01866 -1.144144,-2.87856 -0.227219,-0.85986 -0.559941,-2.09302 -0.595665,-2.89619 -0.03617,-0.81327 -0.02126,-1.7172 0.0066,-2.20697 0.02521,-0.44332 0.112825,-1.47881 0.224791,-1.809 0.180812,-0.53321 0.134297,-1.151715 0.889859,-2.410195 0.511917,-0.88794 1.304936,-2.03677 1.759586,-2.54862 0.454974,-0.51222 1.520427,-1.42629 2.365853,-2.02913 0.846848,-0.60385 2.287014,-1.36526 3.205561,-1.69345 1.011737,-0.36148 2.405461,-0.62452 3.543393,-0.6675 1.033153,-0.039 2.512027,0.10024 3.29325,0.30966 0.779791,0.20902 1.99213,0.65764 2.697226,0.9979 1.281238,0.61829 1.280885,0.61818 0.526831,1.40628 -0.754268,0.78831 -0.754114,0.78816 -2.454978,-0.009 -1.548859,-0.72573 -1.915698,-0.78951 -4.177653,-0.70505 -2.255482,0.0842 -2.626938,0.17665 -4.158516,1.01021 -0.925516,0.50371 -2.178993,1.37148 -2.786387,1.92795 -0.607275,0.55636 -1.104706,1.1743 -1.105121,1.37314 -4.15e-4,0.19891 0.1,0.42125 0.223198,0.49412 0.123186,0.0729 0.728073,-0.37776 1.343983,-1.00156 0.615961,-0.62385 1.829984,-1.50685 2.698476,-1.96177 1.304572,-0.68333 1.920632,-0.84086 3.548023,-0.90172 1.084514,-0.0405 2.54859,0.0878 3.258366,0.28512 0.708182,0.19686 1.515533,0.52778 1.793361,0.73487 0.277739,0.20701 0.450889,0.43379 0.384549,0.50385 -0.06634,0.07 -0.764626,-0.17512 -1.550182,-0.54404 -1.232098,-0.57862 -1.748235,-0.65981 -3.772801,-0.58259 -2.03689,0.0776 -2.517115,0.19218 -3.676339,0.86152 -0.733864,0.42376 -1.76812,1.20674 -2.298784,1.73974 -0.530624,0.53294 -0.92442,1.0763 -0.874962,1.20753 0.04945,0.13125 1.116993,1.05394 2.380037,2.055635 2.300541,1.82453 2.303717,1.8242 2.976044,1.25668 0.421611,-0.35587 1.06189,-0.58206 1.714492,-0.60536 1.033912,-0.0369 1.038306,-0.0317 0.616717,0.57836 -0.235154,0.34043 -0.650947,0.97993 -0.929544,1.42998 -0.435403,0.70336 -0.452736,0.86488 -0.128368,1.18063 0.206635,0.20116 1.888555,0.58422 3.742518,0.85217 3.195891,0.4619 3.289329,0.49307 1.798911,0.59276 -1.574382,0.10531 -1.574848,0.10545 0.0076,0.4022 0.870676,0.16328 2.081809,0.35614 2.6928,0.42884 1.078626,0.12836 1.116648,0.10616 1.3644,-0.75956 0.257244,-0.89889 0.254184,-0.88339 0.153278,-0.044 -0.07117,0.59206 0.01981,0.89003 0.300391,0.98876 0.276172,0.0972 0.481046,-0.11092 0.657707,-0.66602 0.199676,-0.62742 0.415878,-0.81211 0.9683,-0.83053 0.655569,-0.0219 0.703291,0.0487 0.625064,0.89566 -0.07998,0.86598 -0.03066,0.92802 0.834618,1.06215 0.505241,0.0784 1.170779,0.0934 1.478543,0.0337 0.55964,-0.10872 0.558446,-0.10851 -0.03697,-1.02143 -0.376138,-0.57671 -0.575599,-1.24996 -0.542122,-1.82761 0.0292,-0.50385 0.15344,-1.19503 0.276268,-1.53994 0.212808,-0.59758 0.170192,-0.624 -0.976046,-0.58786 -1.178733,0.0372 -1.196075,0.0504 -1.023275,0.78722 0.166763,0.71116 0.135325,0.7445 -0.62634,0.65634 -0.636863,-0.0737 -0.80463,-0.22393 -0.812348,-0.72881 -0.007,-0.45823 -0.156135,-0.63113 -0.534982,-0.61882 -0.389302,0.0126 -0.53237,0.20716 -0.550659,0.75129 -0.02259,0.67215 -0.03446,0.68575 -0.152121,0.10722 -0.121074,-0.59533 -0.201573,-0.61688 -1.612503,-0.41498 -0.760462,0.10881 -2.277687,0.32277 -3.12117,0.44017 -1.097224,0.15272 -1.636969,0.1336 -1.639291,-0.0591 -0.0019,-0.15795 0.555505,-0.38708 1.238876,-0.5089 0.676137,-0.12054 2.191482,-0.42599 3.33644,-0.67181 1.165465,-0.25023 3.60651,-0.68316 5.488769,-0.97148 1.963789,-0.30082 3.991557,-0.46082 4.806062,-0.38237 0.773838,0.0746 1.409039,0.24652 1.410846,0.38193 0.0018,0.13542 -0.4097,0.2582 -0.914211,0.27302 -0.892295,0.0262 -0.912957,0.05 -0.738913,0.88518 0.178287,0.85553 0.179083,0.85802 -0.386791,0.37804 -0.311294,-0.26405 -0.747034,-0.4041 -0.968636,-0.31108 -0.221618,0.093 -0.401066,0.28448 -0.398809,0.42544 0.0023,0.14095 0.255846,0.32861 0.563656,0.41707 0.554524,0.15936 0.553575,0.16386 -0.05507,0.49166 -0.338113,0.1821 -0.645272,0.51097 -0.682787,0.73092 -0.03753,0.22 0.107277,0.6297 0.322151,0.91085 0.364203,0.47652 0.423167,0.47979 0.866594,0.0582 0.26187,-0.24897 0.729562,-0.50137 1.039606,-0.56128 0.30988,-0.0599 0.829453,0.12044 1.154906,0.40045 0.583829,0.50231 0.597036,0.50125 0.953164,-0.0141 0.198639,-0.2875 0.357793,-0.71506 0.353249,-0.94952 -0.0045,-0.23457 -0.159763,-0.58294 -0.34481,-0.77386 -0.269436,-0.27797 -0.269521,-0.31168 -0.003,-0.17 0.217083,0.11539 0.330288,-0.003 0.324681,-0.33822 -0.0047,-0.28364 0.289937,-0.72253 0.655163,-0.97546 0.653266,-0.4524 0.66867,-0.4456 0.956987,0.33958 0.161367,0.43945 0.290784,1.17197 0.199655,1.92794 -0.05721,0.47459 -0.189646,1.07681 -0.293997,1.3344 -0.169338,0.41802 -2.142595,1.98609 -3.02759,2.25526 -0.712424,0.21668 -1.779227,0.23443 -3.676455,0.0606 -1.469758,-0.13471 -2.820421,-0.29741 -3.0042,-0.36187 -0.203729,-0.0715 -0.656738,0.57134 -1.15605,1.65178 -0.508104,1.09948 -1.406285,2.39138 -2.3717,3.4102 -0.85325,0.90047 -2.014472,1.90733 -2.576188,2.22841 -0.563135,0.32189 -1.661592,0.80669 -2.438552,1.0757 -0.778104,0.26942 -2.254597,0.51366 -3.283891,0.54212 l 1.8e-5,-1.5e-4 z m 0.577938,-1.47092 c 0.941927,-0.0969 2.353839,-0.45171 3.139004,-0.78788 0.78372,-0.33555 2.059228,-1.16279 2.831057,-1.83369 0.872231,-0.75817 1.754375,-1.8763 2.329369,-2.94723 0.509397,-0.94875 0.865739,-1.82253 0.787632,-1.94313 -0.07822,-0.12077 -0.242281,-0.21614 -0.364636,-0.21191 -0.122352,0.004 -0.558381,0.65076 -0.966088,1.43818 -0.406003,0.78414 -1.282837,1.97815 -1.940031,2.64026 -0.658991,0.66393 -1.69047,1.45426 -2.289685,1.75205 -0.600149,0.29827 -1.758619,0.67519 -2.57429,0.83698 -0.816313,0.16191 -2.146915,0.22673 -2.95901,0.1438 -0.812404,-0.083 -2.04704,-0.40902 -2.745776,-0.72502 -0.700255,-0.31669 -1.851855,-1.13418 -2.562213,-1.81928 -0.712285,-0.68698 -1.583746,-1.86531 -1.945906,-2.62857 -0.363371,-0.76583 -0.793071,-2.03315 -0.962465,-2.83512 -0.230826,-1.09281 -0.230963,-1.88405 -0.0024,-3.20854 0.166887,-0.96725 0.595003,-2.29061 0.950577,-2.943735 0.486061,-0.89282 0.566409,-1.23401 0.324546,-1.37707 -0.176828,-0.10459 -0.41634,-0.12622 -0.532394,-0.0482 -0.116006,0.078 -0.428002,0.59048 -0.693151,1.13862 -0.265328,0.548485 -0.631432,1.645975 -0.813388,2.440875 -0.203352,0.88838 -0.270427,2.16805 -0.170572,3.32572 0.120839,1.40096 0.404094,2.36577 1.114162,3.77133 0.642206,1.27124 1.432419,2.31025 2.410408,3.1708 0.800645,0.70452 1.919378,1.48825 2.488134,1.74444 0.56764,0.25568 1.570042,0.60295 2.232457,0.77326 0.682326,0.17543 1.943064,0.233 2.914704,0.13305 l -3.7e-5,-3e-5 z m -1.567165,-1.20251 c 0.726261,-0.002 0.715179,-0.006 0.696151,-2.62751 -0.02107,-2.90269 -0.0022,-2.33577 0.142569,0.0312 0.162442,2.65675 0.181912,2.65559 1.476577,2.45041 0.716376,-0.11352 1.818464,-0.46317 2.449319,-0.77646 0.629826,-0.31277 1.679831,-1.10809 2.33072,-1.76322 0.649504,-0.65373 1.4774,-1.736 1.831813,-2.39435 0.432119,-0.80271 0.551391,-1.258 0.355903,-1.37221 -0.160781,-0.0939 -1.697102,-0.40219 -3.409104,-0.68451 -2.898828,-0.47804 -3.163557,-0.4824 -3.889925,-0.0593 -0.428708,0.24974 -0.956497,0.46076 -1.172889,0.46879 -0.216391,0.008 -0.775396,-0.20719 -1.241346,-0.47809 -0.466473,-0.27119 -1.04567,-0.86836 -1.288134,-1.3279 -0.2674,-0.5068 -0.383867,-1.13738 -0.297149,-1.6039 0.131146,-0.70553 -0.05678,-0.92878 -2.218556,-2.68099 -1.29531,-1.049915 -2.436415,-1.900195 -2.545668,-1.895795 -0.108992,0.004 -0.466885,0.58324 -0.795157,1.286365 -0.328554,0.70373 -0.658558,1.89454 -0.733199,2.64983 -0.13565,1.37264 -0.134173,1.37211 1.921635,1.48865 1.132088,0.0642 2.528698,0.20632 3.106068,0.31589 0.970894,0.18425 0.939357,0.19446 -0.391002,0.14048 -0.788812,-0.032 -2.177163,-0.11536 -3.072415,-0.18433 -1.609376,-0.12397 -1.632628,-0.11607 -1.629334,0.53038 0.0018,0.36192 0.184372,1.2587 0.40903,1.99964 0.224992,0.74204 0.931739,2.03961 1.581169,2.89714 0.687639,0.90799 1.74221,1.88337 2.536891,2.34741 0.747106,0.43626 1.754395,0.89417 2.239418,1.01859 0.484257,0.12422 1.206889,0.22484 1.606616,0.2238 l -1e-6,-3e-5 z m 18.701287,-7.15303 c 0.37868,-0.0419 0.687235,-0.26278 0.729702,-0.5221 0.04047,-0.24714 -0.173971,-0.5734 -0.476538,-0.72494 -0.393211,-0.19695 -0.698932,-0.18984 -1.07166,0.0251 -0.286845,0.16577 -0.517593,0.4667 -0.512872,0.66877 0.0047,0.20206 0.158615,0.42542 0.341918,0.49641 0.183266,0.071 0.628483,0.0963 0.989439,0.0563 l 1.1e-5,4.5e-4 z m 24.345435,-1.44476 c -0.23082,0.0492 -0.498706,-0.0317 -0.59536,-0.17991 -0.108167,-0.16586 -0.005,-0.20948 0.268014,-0.11342 0.248869,0.0875 0.556323,-0.007 0.700402,-0.21518 0.214146,-0.3095 0.239151,-0.30444 0.151725,0.0239 -0.05786,0.21733 -0.294029,0.43539 -0.524781,0.48457 v -1e-5 z m -39.552011,-3.23481 c -0.359221,0.0827 -0.654045,0.0469 -0.655223,-0.0795 -0.0012,-0.12639 0.292203,-0.24006 0.652043,-0.25254 0.359833,-0.0125 0.654808,0.0235 0.65536,0.0797 5.52e-4,0.0563 -0.292964,0.16979 -0.65218,0.2524 z m 6.087329,-1.28406 c -0.05342,0.16994 -0.265635,-0.0873 -0.470825,-0.57211 -0.204635,-0.483485 -0.767648,-1.388685 -1.247137,-2.006105 -0.480531,-0.61875 -0.872474,-1.27328 -0.872675,-1.45524 -2.01e-4,-0.18193 0.288792,0.0196 0.642713,0.44746 0.352795,0.42655 0.958839,1.34175 1.343284,2.02746 0.38514,0.68696 0.658046,1.388655 0.60464,1.558535 z m 1.950843,-0.11456 c -0.712878,0.0225 -0.875462,-0.12896 -1.452188,-1.364585 -0.356267,-0.76329 -1.022942,-1.80904 -1.478731,-2.31854 -0.45692,-0.51078 -0.830344,-1.04855 -0.831,-1.1955 -6.56e-4,-0.14688 0.312144,-0.48656 0.695317,-0.75467 0.692214,-0.48432 0.701456,-0.48098 1.429105,0.39049 0.402054,0.48153 1.041582,1.49608 1.418267,2.24888 0.376624,0.75268 0.762427,1.73186 0.853932,2.16984 0.156543,0.749285 0.117755,0.800335 -0.634702,0.824085 z"
         style="fill:#000000;fill-opacity:1;stroke:#000000;stroke-width:0.51958013;stroke-dasharray:none;stroke-opacity:1"
         id="path1-5"
         inkscape:label="wheels" /><path
         style="fill:#000000;fill-opacity:1;stroke:#000000;stroke-width:0.14845147;stroke-dasharray:none;stroke-opacity:1"
         d="m -14.511146,26.439049 c -0.148237,-0.01022 -0.995025,-0.410928 -1.880981,-0.892656 -0.881816,-0.479476 -2.433719,-1.122103 -3.429362,-1.419898 -1.000371,-0.299207 -1.112282,-0.401316 -1.061391,-0.452397 0.05089,-0.05109 0.137087,-0.100843 1.00374,0.115447 0.863177,0.215418 2.249867,0.725755 3.067626,1.128573 0.818872,0.403367 1.736766,0.916274 2.031156,1.136759 0.295813,0.221553 0.417207,0.394377 0.269212,0.384172 z m 0.378539,-2.769074 c -0.06179,0.06173 -0.414565,-0.05777 -0.783541,-0.265965 -0.67252,-0.379472 -0.668712,-0.378107 4.56e-4,-0.210415 0.369106,0.0925 0.721917,0.212167 0.783453,0.266064 0.06159,0.05394 0.06143,0.148576 -3.68e-4,0.210316 z m -1.878886,-0.65311 c -0.210065,-0.01713 -1.163353,-0.233018 -2.120946,-0.482095 -0.957082,-0.248944 -1.496681,-0.4662 -1.203065,-0.48143 0.293734,-0.01524 1.179351,0.136808 1.967479,0.336682 0.788213,0.199896 1.502674,0.429158 1.585574,0.510196 0.08302,0.08116 -0.02001,0.133694 -0.229042,0.116647 z m 2.84273,-1.634173 c -0.148064,6.69e-4 -0.660049,-0.105445 -1.138348,-0.236341 -0.474955,-0.129982 -1.748687,-0.339554 -2.814164,-0.464311 -1.971081,-0.230798 -1.91371,-0.226553 0.198437,-0.156512 1.176236,0.039 2.567813,0.247595 3.082911,0.463296 0.516477,0.21628 0.81917,0.393254 0.671164,0.393868 z"
         id="path46"
         sodipodi:nodetypes="ssssssssssssssssssscssssc"
         transform="translate(87.648863,41.884997)" /><path
         d="m -45.78212,26.398034 c -0.705576,0.479107 -0.970176,0.578323 -0.728904,0.268806 0.207769,-0.266539 1.176917,-0.923341 2.158655,-1.458651 0.981022,-0.53492 1.785331,-0.859863 1.785138,-0.725594 -1.94e-4,0.134267 -0.475132,0.450424 -1.054636,0.703704 -0.582411,0.254552 -1.549192,0.796806 -2.160253,1.211735 z m -2.020373,-1.825705 c -0.261211,0.110483 -0.304976,0.07295 -0.130572,-0.113633 0.144088,-0.154146 1.061765,-0.576048 2.043438,-0.935269 0.981109,-0.359016 1.843099,-0.591521 1.913482,-0.520387 0.07039,0.07114 -0.675235,0.413079 -1.654901,0.763516 -0.985967,0.352692 -1.949823,0.712033 -2.171447,0.805773 z m 0.06712,-2.237112 c -0.755054,0.227883 -1.371848,0.315889 -1.371736,0.193077 1.12e-4,-0.122844 0.593547,-0.375806 1.319842,-0.559906 0.727937,-0.184518 1.598261,-0.340686 1.941039,-0.34989 0.961963,-0.02583 0.367928,-0.03985 0.679496,-0.04411 0.337535,-0.0046 0.232594,0.197592 -0.372565,0.261262 -0.455423,0.04791 -1.438192,0.270834 -2.196076,0.499572 0,-2e-6 0,-3e-6 0,-5e-6 z"
         style="fill:#000000;fill-opacity:1;stroke:#000000;stroke-width:0.14845147;stroke-dasharray:none;stroke-opacity:1"
         id="path1"
         sodipodi:nodetypes="ssssssssssssssssssss"
         transform="translate(87.648863,41.884997)" /></g></g></svg>
