<?xml version="1.0" encoding="UTF-8" standalone="no"?>
<!-- Created with Inkscape (http://www.inkscape.org/) -->

<svg
   version="1.1"
   id="svg1"
   width="100"
   height="100"
   viewBox="0 0 99.999999 100"
   sodipodi:docname="world_map_land.svg"
   inkscape:version="1.4 (1:1.4+202410161351+e7c3feb100)"
   xmlns:inkscape="http://www.inkscape.org/namespaces/inkscape"
   xmlns:sodipodi="http://sodipodi.sourceforge.net/DTD/sodipodi-0.dtd"
   xmlns="http://www.w3.org/2000/svg"
   xmlns:svg="http://www.w3.org/2000/svg">
  <defs
     id="defs1" />
  <sodipodi:namedview
     id="namedview1"
     pagecolor="#ffffff"
     bordercolor="#666666"
     borderopacity="1.0"
     inkscape:showpageshadow="2"
     inkscape:pageopacity="0.0"
     inkscape:pagecheckerboard="0"
     inkscape:deskcolor="#d1d1d1"
     inkscape:zoom="8.5493332"
     inkscape:cx="51.699938"
     inkscape:cy="51.349034"
     inkscape:window-width="1920"
     inkscape:window-height="1029"
     inkscape:window-x="0"
     inkscape:window-y="0"
     inkscape:window-maximized="1"
     inkscape:current-layer="g1" />
  <g
     inkscape:groupmode="layer"
     inkscape:label="Image"
     id="g1"
     transform="translate(0.087197,1.8069948)">
    <path
       style="display:inline;fill:#adc7a6"
       d="m 1524.5133,931.98371 c -46.5258,-22.04477 -62.4595,-79.2893 -56.3004,-127.02139 2.5125,-26.20254 3.3044,-52.98137 9.0775,-78.61089 15.9356,-27.32649 49.8015,1.69201 41.0001,26.33635 -2.5263,36.52316 -26.8674,67.53481 -28.2966,104.43638 -0.091,13.61351 -2.7799,44.02394 13.3647,45.2134 -9.3368,-20.75663 -14.821,-44.12762 -5.977,-66.59205 9.3178,-32.1332 29.886,-63.12526 24.0935,-97.91664 -8.3677,-23.60337 -36.3933,-39.68427 -32.9657,-67.29555 7.487,-26.07429 9.1396,-57.32009 -11.5343,-77.98469 -26.4651,-34.58038 -70.4,-45.67643 -106.6171,-66.21564 -24.2262,-11.77695 -35.0604,-43.31672 -63.1147,-47.11231 -18.9372,-2.4423 -44.0232,-1.05379 -53.5314,-21.40752 -24.849,-44.61099 -14.2222,-102.99461 -50.1181,-142.43532 -19.0377,-22.02253 -55.646,-20.66748 -76.1467,-1.41587 -22.1747,17.17549 -51.2387,-2.25641 -54.3729,-27.20746 -9.0466,-21.91641 -38.8245,-31.18486 -58.1486,-17.04673 -30.71027,15.60773 -67.26217,20.14054 -94.28723,42.47665 -10.66907,14.9247 -23.70444,61.12256 -46.64703,36.50808 -6.76033,-19.03107 39.40529,-40.41996 8.23079,-48.52623 -24.20221,8.29952 -52.87138,4.73117 -73.65556,21.4698 -18.04529,16.31481 4.22279,33.89503 7.70859,50.88755 6.31579,23.46191 1.03159,48.69778 -8.54618,70.38747 -5.60061,18.65576 -25.41428,1.16565 -9.16177,-7.90613 19.16762,-12.07036 15.85482,-63.14187 -11.66949,-40.47095 -12.24725,23.22348 -32.53694,44.12944 -61.31644,38.4842 -30.8958,4.36326 -7.48296,47.0078 -31.79158,62.04645 -16.67725,12.54385 -30.35568,28.23246 -38.33995,47.88379 -6.72928,17.56046 -19.5412,32.55507 -28.00732,48.30887 -0.9459,27.93518 39.00809,40.10621 59.16377,25.18569 7.87509,-8.22945 36.93843,-30.482 29.6672,-4.05443 -4.54629,23.22569 15.63567,53.98771 41.59746,42.8337 21.32784,-11.36716 49.33253,-25.34367 71.4465,-8.54795 19.9694,17.38978 -11.88822,23.47797 -24.91386,16.02738 -25.7662,-11.03315 -50.84143,24.34198 -24.44032,39.94942 22.28858,10.05581 51.2791,-4.01261 69.96539,16.16394 19.23739,17.83663 26.7986,52.15469 7.10494,72.47161 -22.29787,17.88806 -13.01308,52.68594 15.40508,56.67496 7.23193,0.57648 37.1847,15.01153 19.36872,16.93707 -43.77052,-17.70562 -77.05397,-54.6447 -122.27551,-69.30822 -25.41218,-2.59321 -63.99092,-1.87447 -68.69826,-34.84899 -7.28819,-32.26063 26.30874,-43.35174 44.21475,-60.99977 19.01397,-20.46929 -6.92532,-37.65605 -26.31143,-39.49394 -22.43323,-6.24578 -48.51439,-11.58362 -62.32681,-32.17923 -17.72774,-6.37521 -53.10312,5.9132 -45.83588,-26.85597 -0.9453,-29.70086 -9.57301,-65.42047 -39.62103,-78.31272 -30.43813,-9.95884 -37.22568,27.47127 -55.78263,39.63054 -31.27556,6.91462 -17.87086,-36.76668 -37.80495,-48.89939 -18.36372,-17.99557 -47.58122,-21.47748 -71.84277,-17.38656 -24.14014,9.75647 -2.71711,26.07779 6.57163,35.55656 -22.22094,20.69565 -30.53431,-39.05167 -57.35673,-32.25406 -18.3182,-4.28661 -19.1838,44.71085 -33.20448,15.05104 -18.10044,-20.82116 -36.03176,21.95288 -13.47863,30.68439 15.2843,20.0054 39.39819,29.46703 60.09228,42.52307 16.28743,26.69337 -17.88635,46.19918 -32.3868,64.08978 -14.3813,21.09703 -8.19099,48.99159 -20.97415,70.96065 -11.09898,24.06041 -25.59497,46.52226 -40.63542,68.20844 -18.29771,19.83518 -54.68316,1.65348 -51.6295,-24.55231 -7.96362,-31.96079 -17.00336,-63.72532 -20.73502,-96.54386 -2.26667,-25.23023 -16.74078,-47.72363 -39.80384,-58.51047 -21.56445,-12.30009 -44.15439,-28.38691 -49.23139,-54.43977 -12.62563,-39.74427 8.47814,-92.40331 52.71371,-99.69163 33.70365,-4.96336 60.34268,23.24308 93.5828,23.24074 15.46643,0.77095 33.6551,-1.53464 44.39645,-13.67985 6.0888,-16.79918 -22.67538,-39.60729 4.85181,-48.4714 13.94093,-24.19847 -27.39849,-19.22303 -40.75532,-16.7196 -37.43557,2.70865 -74.53455,9.60676 -110.55035,19.89324 -29.14792,0.0229 -36.27689,-34.6498 -31.74142,-57.57727 6.70135,-27.14547 34.69666,2.64836 51.41269,-13.74475 18.88015,-11.40628 42.0632,-0.68324 60.39963,-12.97222 20.95029,-12.7787 32.47168,-36.71224 38.37049,-59.44263 -3.89958,-28.22644 -41.73284,-14.64232 -37.95952,10.15649 -4.71289,19.04936 -24.06856,42.6348 -45.00805,28.73462 -23.00042,-16.79742 -3.8816,-54.48274 23.14014,-50.41178 23.78205,-2.59717 43.57923,-16.45209 65.83226,-23.57333 20.37254,-6.55816 43.28082,-4.83304 61.55459,6.67338 20.61255,7.79964 52.18607,7.822 61.68023,-16.23407 1.98952,-22.00543 3.7493,-60.94585 34.02618,-59.2715 17.84612,12.75337 -21.28962,30.14879 -10.08269,49.42194 13.2064,28.54314 46.4074,4.99061 56.82552,-14.03215 17.75661,-18.13183 43.16375,-28.32174 68.50238,-26.35513 30.00363,-4.82084 58.73027,-21.43121 89.8651,-16.11473 23.91177,13.17808 38.9779,41.53313 67.98984,45.28874 34.12179,6.6202 68.09634,-7.42445 102.41249,-3.13428 27.07216,1.149 53.00779,10.41847 76.68988,23.0349 46.28715,16.67571 96.08168,18.7643 144.59502,23.20428 43.9814,0.17789 87.9962,-2.75935 131.8341,-5.36678 36.6388,-5.78138 71.4954,-21.02034 108.8545,-22.50379 19.0518,3.75878 54.8207,28.28526 64.4041,1.89448 -6.8606,-10.48889 -26.7827,-32.53068 -0.5169,-32.85892 30.4603,-0.35256 59.7876,-12.02416 82.3319,-32.43894 25.3561,-20.38455 50.732,-47.90461 85.4737,-48.86228 24.3085,3.92502 49.3044,21.94995 73.5994,7.1196 70.3316,-38.625371 125.6978,7.20733 171.93,38.20072 18.6882,26.46416 -8.2392,56.94271 -32.5059,67.57735 -26.6754,12.26204 -49.0084,32.98567 -77.1369,41.82044 -21.7472,7.9649 -47.7392,-3.76907 -53.222,-26.79432 -6.7088,-21.47512 -10.0155,-46.65422 -30.4876,-60.13449 -28.9926,-22.43678 -74.7237,-23.78064 -102.9031,0.47394 -19.6404,25.20585 7.2899,57.21397 35.7014,53.5584 28.2793,1.75179 25.1807,42.00707 -3.3263,38.16174 -25.1507,-0.65981 -53.0454,-19.82381 -76.2357,-2.08471 -21.2885,15.5972 -6.9375,46.728 13.6199,55.22524 26.2676,5.29715 37.8383,35.3797 23.9508,57.90235 -17.8292,31.92351 -12.8917,72.03607 0.2954,104.83262 9.0273,8.57874 9.6975,34.82369 -4.1876,14.0851 -14.5516,-17.97622 -53.1154,-19.01122 -54.6982,9.47623 4.1218,28.30812 38.4095,32.21542 57.4339,47.62403 21.9084,14.77094 48.7827,20.1742 74.8086,16.70479 41.5558,-0.38368 73.087,31.15235 105.0673,53.35715 33.6374,23.72086 34.4987,73.69956 16.6023,107.52476 -27.9302,52.82103 -93.1279,75.01156 -115.0456,132.051 -6.7734,19.57822 13.7386,45.02595 -6.6228,60.19806 z m 17.8267,-5.16231 c -0.3861,3.0542 -1.5082,-2.04214 0,0 z m 1.18,-4.84925 c -19.3326,-32.20841 -1.6289,-73.77335 25.6823,-95.31326 17.9999,-13.9011 37.6261,-39.59889 55.0831,-45.61725 4.5218,20.07937 -21.786,30.99335 -31.5776,46.01305 -21.1826,20.15136 -39.9965,44.72234 -44.3001,74.43413 -1.766,6.79428 -3.3667,13.63042 -4.8877,20.48333 z M 887.52001,871.77834 c -17.53496,19.19233 -24.89327,-33.92739 -3.72791,-10.16561 2.16109,2.94389 3.57209,6.49358 3.72791,10.16561 z m 14.06673,-10.4647 c -11.63724,-19.38864 -42.65786,-20.52609 -47.7595,-44.50843 4.59858,-22.74137 33.52477,-42.71653 19.13342,-68.92476 -7.87373,-23.02084 -25.20785,-49.91677 -51.52953,-52.0556 -17.36236,6.00807 -58.37604,2.37957 -40.51912,-24.38821 24.47334,-17.46947 52.82087,2.24159 77.44206,9.12032 27.74214,11.34382 31.81879,46.54373 25.68751,72.33156 -2.38332,18.78382 -18.75648,37.12432 -7.36026,55.95908 7.78003,29.03892 64.57687,9.99479 53.70862,44.61488 -5.75025,11.33977 -18.25622,12.48252 -28.8032,7.85116 z m -69.42673,-15.09909 c -17.73234,-22.17203 -49.69513,-15.64357 -72.28111,-29.05758 -16.94653,-22.52417 25.85118,-25.31732 33.73242,-8.00501 14.34859,10.21581 32.77863,19.07928 38.54869,37.06259 z M 262.88,816.66508 c 21.23454,-41.99311 63.19019,-74.61944 67.41004,-124.19065 4.87144,-24.53807 12.33582,-51.53818 33.88524,-66.72734 32.36066,-3.13171 17.47066,39.14456 7.8035,54.84025 -15.00101,47.95932 -32.39406,102.64688 -79.14563,128.73992 -9.20828,4.75526 -19.52677,7.70857 -29.95315,7.33782 z M 243.6,812.5708 c -3.98072,-0.77894 1.31138,-2.34056 0,0 z m -3.02,-5.4294 c -0.38548,3.05464 -1.50878,-2.04193 0,0 z m 466.30001,-86.97734 c -1.9597,-19.77894 15.31398,-59.27993 38.71884,-43.15212 13.21264,26.96472 -28.10472,29.27562 -38.71884,43.15212 z M 195.67476,691.76 c -7.76257,-25.25326 -32.10981,-42.33448 -36.32815,-69.05023 29.26087,-5.03182 40.35659,33.12429 39.03926,56.10978 -0.42704,4.39506 -1.32604,8.74655 -2.71111,12.94045 z m 491.52525,-32.11209 c -12.12013,5.65799 -47.4716,-11.28855 -28.37384,-21.31575 12.0257,2.3239 22.78686,10.41948 28.37384,21.31575 z m 52.16,-4.89867 c -29.55089,-4.44114 -12.36608,-58.61329 12.86776,-34.05739 30.60068,6.18273 11.80359,31.87085 -9.75435,32.6246 z m 906.89329,-15.82648 c -32.5956,-26.53738 -66.7297,-52.66627 -106.6125,-67.20538 -32.8686,9.81779 -67.6212,-1.32126 -96.008,-18.29837 -20.9131,-4.05128 -60.7967,-33.54804 -31.1242,-51.76341 25.1804,-3.4361 41.0763,22.97277 62.6727,31.92923 27.8148,17.17849 59.5504,25.59225 89.7739,37.10543 32.8137,14.08493 65.5137,34.86765 81.2981,68.2325 z M 664.48154,620.28831 c -34.54699,0.8278 -30.25798,-45.90693 -12.11521,-63.48445 15.66376,-17.57726 12.78509,16.28853 28.11724,18.75826 29.42262,14.23958 8.28059,37.47764 -13.65258,42.47127 z M 598.29688,612.08 c -9.21677,-19.27192 -27.21996,-54.5225 -17.73049,-68.34101 23.29785,9.04839 33.5726,49.31057 17.73049,68.34101 z M 491.04001,585.4299 c -30.80498,-2.33982 -63.06094,-21.11541 -71.67501,-52.30752 -16.36954,-13.21951 -8.79516,-41.09378 14.94148,-32.49378 39.78118,2.37751 69.96197,47.0613 56.73353,84.8013 z m -116.71674,-6.4133 c -28.97484,1.10547 -57.08765,-19.85404 -64.4807,-47.85935 23.07247,-7.72456 25.38848,32.24671 46.90248,37.338 5.49268,4.07454 11.36398,7.65597 17.57822,10.52135 z M 1339.2,510.53006 c -18.3575,19.5255 -27.3074,-35.26376 -6.6083,-12.33296 2.2181,4.10162 3.7319,8.605 6.6083,12.33296 z M 270.72,473.61398 c -16.93984,5.00136 -59.66981,2.46116 -46.97838,-24.23567 20.86202,-10.28753 53.12554,-11.77063 68.74337,7.76316 7.25345,13.6937 -10.50712,24.58548 -21.76499,16.47251 z M 760.16001,458.0647 c -12.37888,-22.11775 18.33921,-68.4427 39.87577,-47.45331 5.12646,22.93874 -21.98421,39.45673 -39.87577,47.45331 z m -41.82039,-2.78582 c -12.67723,-26.48523 39.65111,-1.81563 2.45584,1.26045 z m 92.81299,-5.26499 c 1.901,-27.59978 19.58944,-54.17641 10.89588,-82.20809 -24.88812,-13.93268 -18.12633,-57.65542 13.92883,-51.86919 12.34178,-3.30144 45.31241,-19.70563 44.34,1.12963 -17.93563,12.13078 -21.28072,48.07935 6.6199,48.07232 27.62207,-8.09369 24.25409,-48.18309 51.41488,-59.21306 20.89307,-15.63606 49.15697,-11.86758 69.6021,-28.26409 9.2344,-10.10206 49.4077,-16.90408 36.9366,3.00437 -21.6054,6.66493 -46.2764,2.76584 -66.77478,15.81798 -70.83871,33.15886 -102.78107,111.87988 -166.96341,153.53013 z M 1238.877,437.09438 c -17.4908,-32.5155 -9.1992,-76.92487 -39.7661,-102.53071 -16.8832,-14.77754 -40.6776,2.51 -58.8083,-7.82793 -16.5543,-26.93991 33.1765,-27.8772 47.3849,-15.13659 28.3742,14.09758 39.1527,47.0979 41.0353,76.67986 2.596,16.41566 5.1161,32.93154 10.1542,48.81537 z M 284.80342,422.10045 c -16.44241,-19.1856 35.61804,-18.01835 14.88145,-1.59728 -4.84043,1.44937 -9.93638,0.89993 -14.88145,1.59728 z m -114.72898,-1.48034 c 2.22394,-4.22765 0.77733,4.34216 0,0 z M 112.36809,389.2 c -19.424298,-17.44915 33.85547,-21.38503 11.26487,-1.1048 -3.17978,2.26033 -7.72527,3.25312 -11.26487,1.1048 z m 37.78573,-31.45613 c -25.36545,-15.4757 -0.69272,-59.65649 25.93085,-49.61583 17.48456,17.51944 55.07541,22.58029 62.14817,-7.46153 1.79637,-14.82592 26.63429,-41.57677 30.14751,-13.40501 -4.03398,30.54073 -35.19015,53.7802 -65.50221,51.91943 -18.94086,-0.0507 -40.64893,1.79955 -52.72432,18.56294 z M 1467.04,343.22333 c -24.07,-6.2889 -49.9048,-21.28806 -55.7103,-47.33973 4.6756,-30.23475 41.8397,-24.92599 63.9221,-21.87983 23.9676,-1.35362 34.1427,21.93881 18.2619,38.79913 -5.9778,12.15845 -14.4164,23.72657 -26.4737,30.42043 z m 22.8862,-13.15213 c -10.9779,-12.42169 20.7971,-6.70528 0,0 z m 170.9192,-61.37781 c 26.7821,-23.07298 65.2159,-29.23992 88.1569,-57.29804 1.2038,-20.11147 29.6041,3.67536 8.1834,8.52027 -20.6593,16.65284 -45.2602,27.37219 -67.4063,41.73676 -8.9992,4.30619 -18.8605,7.36878 -28.934,7.04101 z m -131.3382,-11.5145 c -11.4511,-27.16664 -47.4155,-19.93896 -66.102,-37.70872 -17.6555,-25.09929 14.1254,-51.89069 39.2778,-48.8723 27.2184,-1.43893 56.647,9.53187 72.8369,32.04041 13.5918,23.33475 -5.4452,55.48204 -33.3292,49.77864 -4.5204,0.49611 -9.1301,1.78718 -12.6835,4.76197 z M 1025.28,252.79079 C 969.69675,239.63664 909.11711,242.28675 858.34708,212.8352 809.81139,193.74545 757.6466,212.88735 707.731,206.75362 c -28.80197,-9.15676 -42.50328,-44.14011 -74.57047,-46.62417 -23.56451,-0.1318 -45.01808,12.00252 -68.25541,14.93047 -24.17655,4.95826 -48.71504,8.66837 -72.21128,16.44237 -13.69499,13.14365 -33.27425,54.44555 -53.71599,29.41271 -5.91788,-25.21478 19.89367,-43.52929 38.15195,-55.94136 40.82089,-22.74747 89.34955,-15.41045 133.95485,-13.82905 75.81685,5.59283 149.02588,27.54086 221.00371,50.68257 59.79517,16.173 120.82188,27.06136 181.33254,40.10868 6.3482,-3.44027 32.1818,11.21245 11.8591,10.85495 z m -667.52,-3.3535 c -30.65508,8.33096 -30.58823,-48.75453 0.71097,-40.64388 14.00811,-4.13804 39.31019,-35.57749 47.51419,-12.17274 -3.64787,20.75707 -10.08318,49.46395 -34.22602,54.27241 -4.68383,0.73631 -9.5833,0.31782 -13.99914,-1.45579 z m 970.72,-12.51835 c -15.2798,11.97927 -45.6638,-22.87682 -16.3506,-20.66043 9.3698,0.52261 28.8027,9.96248 16.3506,20.66043 z m 57.12,-50.25968 c -4.6687,-19.97993 25.5619,5.96763 0,0 z M 1545.6969,128.56 c -24.1189,-24.49759 19.9683,-47.936443 42.4135,-40.402468 28.6969,9.640237 1.683,32.940708 -17.2168,31.804348 -8.431,2.76954 -16.8966,5.4497 -25.1967,8.59812 z M 1476.42,104.7414 c -0.3854,3.05446 -1.5087,-2.04175 0,0 z m -5.6139,-0.32316 c -2.3132,1.42911 -0.077,-1.9733 0,0 z m 3.9939,-4.79017 c -2.423,-0.703496 1.1644,-1.335574 0,0 z m -6.88,-0.328654 c -2.7567,0.513238 0.8974,-2.062601 0,0 z m -6.72,-0.32 c -2.7567,0.513235 0.8974,-2.062602 0,0 z"
       id="path8"
       inkscape:label="land"
       sodipodi:nodetypes="cccccccccccccccccccccccccccccccccccccccccccccccccccccccccccccccccccccccccccccccccccccccccccccccccccccccccccccccccccccccccccccccccccccccccccccccccccccccccccccccccccccccccccccccccccccccccccccccccccccccccccccccccccccccccccccccccccccccccccccccccccccccccccccccccccccccccccccccccccccccccc"
       transform="matrix(0.05524653,0,0,0.10225373,0.40314354,-0.89555836)" />
  </g>
</svg>
