<?xml version="1.0" encoding="UTF-8" standalone="no"?>
<!-- Created with Inkscape (http://www.inkscape.org/) -->

<svg
   version="1.1"
   id="svg1"
   width="37"
   height="64"
   viewBox="0 0 37 64"
   sodipodi:docname="marker.svg"
   xml:space="preserve"
   inkscape:version="1.4 (1:1.4+202410161351+e7c3feb100)"
   xmlns:inkscape="http://www.inkscape.org/namespaces/inkscape"
   xmlns:sodipodi="http://sodipodi.sourceforge.net/DTD/sodipodi-0.dtd"
   xmlns="http://www.w3.org/2000/svg"
   xmlns:svg="http://www.w3.org/2000/svg"><defs
     id="defs1" /><sodipodi:namedview
     id="namedview1"
     pagecolor="#ffffff"
     bordercolor="#666666"
     borderopacity="1.0"
     inkscape:showpageshadow="2"
     inkscape:pageopacity="0.0"
     inkscape:pagecheckerboard="0"
     inkscape:deskcolor="#d1d1d1"
     inkscape:zoom="9.1260969"
     inkscape:cx="19.230565"
     inkscape:cy="35.612157"
     inkscape:window-width="1920"
     inkscape:window-height="1029"
     inkscape:window-x="0"
     inkscape:window-y="0"
     inkscape:window-maximized="1"
     inkscape:current-layer="g1" /><g
     inkscape:groupmode="layer"
     inkscape:label="Image"
     id="g1"><path
       style="fill:#333333;fill-opacity:1"
       d="m 16.827069,61.593379 c 0,-5.469638 -5.148179,-18.482866 -10.7067177,-27.063736 C 1.0158853,26.649737 0.36271027,25.044597 0.05337327,19.620392 -0.35426273,12.472524 1.5327093,8.2145604 7.1076403,3.7023939 13.461653,-1.4403363 24.212908,-1.1924029 30.399533,4.2395255 c 4.880921,4.285505 6.427536,7.7540215 6.427536,14.4147145 0,6.014864 -0.930611,8.148345 -8.380544,19.212896 -3.531092,5.244334 -7.047688,14.746788 -8.257686,22.313697 -0.689038,4.309006 -3.36177,5.432032 -3.36177,1.412546 z m 2.675343,-9.209613 c -0.361895,-0.361895 -0.156795,-1.261895 0.455778,-2 0.612572,-0.738105 0.860355,-1.342009 0.550627,-1.342009 -0.309728,0 0.06214,-1.205235 0.826377,-2.6783 0.764235,-1.473065 1.160991,-3.048065 0.88168,-3.5 -0.279312,-0.451935 -0.03985,-0.8217 0.532126,-0.8217 0.571981,0 1.322322,-1.125 1.667425,-2.5 0.345103,-1.375 1.028676,-2.5 1.519052,-2.5 0.490376,0 0.891592,-0.626855 0.891592,-1.393011 0,-0.766156 0.703522,-1.662978 1.563382,-1.992937 0.85986,-0.32996 1.312445,-1.005951 1.005744,-1.502204 -0.306702,-0.496253 0.143298,-1.171253 1,-1.5 0.856701,-0.328747 1.301312,-1.012466 0.988025,-1.519375 -0.313286,-0.506909 -0.0923,-1.080756 0.491074,-1.275215 0.583378,-0.194459 1.161336,-1.020393 1.284351,-1.83541 0.123016,-0.815016 0.482032,-1.931848 0.797815,-2.481848 0.920038,-1.602435 0.709126,-9.48115 -0.270009,-10.086289 -0.491153,-0.303549 -0.634108,-0.970813 -0.317677,-1.482809 0.316431,-0.511996 0.02377,-0.930902 -0.650355,-0.930902 -0.674126,0 -0.973411,-0.252273 -0.665077,-0.560606 0.689925,-0.6899245 -4.434917,-5.9980499 -5.477273,-5.6731596 -0.4125,0.1285714 -0.75,-0.2427914 -0.75,-0.8252508 0,-0.5824593 -0.418906,-0.800119 -0.930902,-0.4836881 -0.511996,0.3164309 -1.161599,0.2020517 -1.443564,-0.254176 -0.909955,-1.4723389 -9.192204,-0.7170673 -11.949698,1.0897122 -1.47171,0.9643012 -2.6758357,1.517901 -2.6758357,1.2302219 0,-0.2876792 -0.9,0.376947 -2,1.476947 -1.1,1.1 -2,2.4499999 -2,2.9999994 0,0.55 -0.45,1 -1,1 -0.55,0 -0.946711,0.3375 -0.881579,0.75 0.06513,0.4125 0.01277,0.975 -0.116356,1.25 -0.563721,1.200546 -0.681609,9.593442 -0.147484,10.5 0.324048,0.55 0.689827,1.666832 0.812843,2.481848 0.123015,0.815017 0.698169,1.640017 1.27812,1.833333 0.579951,0.193317 1.054456,0.988986 1.054456,1.768152 0,0.779167 0.45,1.416667 1,1.416667 0.55,0 1,0.675 1,1.5 0,0.825 0.45,1.5 1,1.5 0.55,0 1,0.675 1,1.5 0,0.825 0.4499997,1.5 0.9999997,1.5 0.55,0 1,0.642857 1,1.428571 0,0.785715 0.5625,2.023215 1.25,2.75 0.6875,0.726786 1.404295,2.20503 1.592878,3.284988 0.188584,1.079957 0.942136,2.819118 1.674562,3.864802 0.732425,1.045684 1.092485,2.524583 0.800133,3.286441 -0.329784,0.859402 0.141697,1.385198 1.242105,1.385198 0.97551,0 1.47756,-0.296096 1.115665,-0.657991 z"
       id="path7" /><path
       style="display:inline;fill:#4816cc;stroke-width:0.89098;fill-opacity:1"
       d="m -27.864349,45.369 c -1.190032,-3.862609 -3.904955,-9.297743 -6.869555,-13.752493 -2.696031,-4.051185 -5.162615,-8.755649 -5.481295,-10.454365 -1.216152,-6.482648 0.902626,-11.8849706 6.217568,-15.8531477 3.504048,-2.6161491 12.750911,-2.6009029 16.297402,0.026872 4.329416,3.2078824 6.524939,7.2868177 6.524939,12.1223097 0,4.782186 -1.098805,7.367161 -6.55299,15.416138 -1.992374,2.940233 -4.645323,8.391368 -5.895444,12.113634 l -2.272943,6.767754 z"
       id="path5"
       transform="translate(44.319613,0.46489104)" /></g></svg>
